<?xml version="1.0" encoding="UTF-8"?>
<svg id="Layer_2" data-name="Layer 2" xmlns="http://www.w3.org/2000/svg" viewBox="0 0 185.07 185.07">
  <defs>
    <style>
      .cls-1 {
        fill: #fff;
      }
    </style>
  </defs>
  <path d="M38.79,180.62h0c-6.23-3.12-9.6-9.95-8.41-16.81,7.65-44.33-4.69-77.19-23.11-104.14-3.31-4.84-3.73-11.09-.99-16.27h0c3.19-6.04,9.71-9.59,16.52-8.94,43.71,4.16,70.77-5.09,97.23-28.26C125.79,1.14,134.01,0,140.89,3.42h0c6.93,3.44,11,10.82,10.22,18.52-4.09,40.41,3.5,73.74,27.2,101.9,4.06,4.82,4.88,11.58,2.05,17.2h0c-3.08,6.1-9.75,9.54-16.49,8.42-41.91-6.96-67.25,1.46-102.71,28.93-6.42,4.97-15.11,5.87-22.38,2.23Z"/>
  <path class="cls-1" d="M168.06,134.71c-51.44-7.16-73.84-3.75-122.17,32.09,10.33-49.72-1.24-81.2-27.65-117.84,24.09,2.31,39.48,1.54,61.68-4.2,1.87,30.77,2.67,54.13-9.67,82.93,36.05-32.79,74.42-25.64,74.42-25.64,5.95,12.92,13.13,23.54,23.39,32.66Z"/>
  <path class="cls-1" d="M114.08,48.63c-7.17,3.62-11.99,5.72-18.35,11.67.84-7.65.76-12.77-.18-19.95,13.93-4.84,25.46-12.72,38.91-25.32-2.07,9.95-2.27,18.59-2.24,25.47-10.42,8.35-16.18,15.29-22.32,34.37,11.23-11.56,16.97-13.92,22.73-15.55.32,8.99,2.17,16.67,5.59,25.54-16.36-2.88-34.4,3.33-48.08,12.37,4.37-16.65,11.8-34.29,23.93-48.6Z"/>
</svg>