<?xml version="1.0" encoding="UTF-8"?>
<svg xmlns="http://www.w3.org/2000/svg" xmlns:xlink="http://www.w3.org/1999/xlink" viewBox="0 0 900 1337.69">
  <defs>
    <style>
      .cls-1 {
        stroke: #62c110;
        stroke-linecap: round;
        stroke-linejoin: round;
        stroke-width: 10px;
      }

      .cls-1, .cls-2 {
        fill: #fff;
      }

      .cls-3 {
        fill: url(#linear-gradient);
      }

      .cls-4 {
        fill: #afed4c;
      }

      .cls-5 {
        isolation: isolate;
      }

      .cls-6 {
        stroke: url(#linear-gradient-8);
      }

      .cls-6, .cls-7, .cls-8, .cls-9, .cls-10, .cls-11, .cls-12, .cls-13, .cls-14, .cls-15, .cls-16, .cls-17, .cls-18, .cls-19, .cls-20, .cls-21, .cls-22, .cls-23, .cls-24, .cls-25 {
        fill: none;
        stroke-miterlimit: 10;
        stroke-width: 3px;
      }

      .cls-7 {
        stroke: url(#linear-gradient-2);
      }

      .cls-8 {
        stroke: url(#linear-gradient-4);
      }

      .cls-9 {
        stroke: url(#linear-gradient-3);
      }

      .cls-10 {
        stroke: url(#linear-gradient-7);
      }

      .cls-11 {
        stroke: url(#linear-gradient-9);
      }

      .cls-12 {
        stroke: url(#linear-gradient-6);
      }

      .cls-13 {
        stroke: url(#linear-gradient-5);
      }

      .cls-2 {
        mix-blend-mode: screen;
      }

      .cls-2, .cls-26 {
        opacity: .3;
      }

      .cls-26, .cls-27, .cls-28 {
        fill: #2a2a35;
        mix-blend-mode: multiply;
      }

      .cls-27 {
        opacity: .5;
      }

      .cls-28 {
        opacity: .4;
      }

      .cls-14 {
        stroke: url(#linear-gradient-20);
      }

      .cls-15 {
        stroke: url(#linear-gradient-21);
      }

      .cls-16 {
        stroke: url(#linear-gradient-13);
      }

      .cls-17 {
        stroke: url(#linear-gradient-12);
      }

      .cls-18 {
        stroke: url(#linear-gradient-11);
      }

      .cls-19 {
        stroke: url(#linear-gradient-10);
      }

      .cls-20 {
        stroke: url(#linear-gradient-16);
      }

      .cls-21 {
        stroke: url(#linear-gradient-18);
      }

      .cls-22 {
        stroke: url(#linear-gradient-14);
      }

      .cls-23 {
        stroke: url(#linear-gradient-19);
      }

      .cls-24 {
        stroke: url(#linear-gradient-15);
      }

      .cls-25 {
        stroke: url(#linear-gradient-17);
      }
    </style>
    <linearGradient id="linear-gradient" x1="-86.86" y1="132.83" x2="1025.93" y2="1244.21" gradientUnits="userSpaceOnUse">
      <stop offset="0" stop-color="#1d1d24"/>
      <stop offset="0" stop-color="#1e1e25"/>
      <stop offset=".25" stop-color="#63636b"/>
      <stop offset=".36" stop-color="#7f7f87"/>
      <stop offset=".6" stop-color="#5c5c64"/>
      <stop offset="1" stop-color="#1d1d24"/>
    </linearGradient>
    <linearGradient id="linear-gradient-2" x1="111.85" y1="-117.35" x2="788.15" y2="273.11" gradientUnits="userSpaceOnUse">
      <stop offset="0" stop-color="#76767e"/>
      <stop offset="1" stop-color="#212127"/>
    </linearGradient>
    <linearGradient id="linear-gradient-3" x1="111.85" y1="-107.32" x2="788.15" y2="283.14" xlink:href="#linear-gradient-2"/>
    <linearGradient id="linear-gradient-4" x1="111.85" y1="-97.3" x2="788.15" y2="293.17" xlink:href="#linear-gradient-2"/>
    <linearGradient id="linear-gradient-5" x1="111.85" y1="-87.27" x2="788.15" y2="303.19" xlink:href="#linear-gradient-2"/>
    <linearGradient id="linear-gradient-6" x1="111.85" y1="-77.24" x2="788.15" y2="313.22" xlink:href="#linear-gradient-2"/>
    <linearGradient id="linear-gradient-7" x1="111.85" y1="-67.22" x2="788.15" y2="323.24" xlink:href="#linear-gradient-2"/>
    <linearGradient id="linear-gradient-8" y1="-57.19" x2="788.15" y2="333.27" xlink:href="#linear-gradient-2"/>
    <linearGradient id="linear-gradient-9" x1="111.85" y1="-47.17" x2="788.15" y2="343.29" xlink:href="#linear-gradient-2"/>
    <linearGradient id="linear-gradient-10" x1="111.85" y1="-37.14" x2="788.15" y2="353.32" xlink:href="#linear-gradient-2"/>
    <linearGradient id="linear-gradient-11" x1="111.85" y1="-27.12" x2="788.15" y2="363.35" xlink:href="#linear-gradient-2"/>
    <linearGradient id="linear-gradient-12" x1="224.25" y1="1034.05" x2="675.75" y2="1485.55" gradientUnits="userSpaceOnUse">
      <stop offset="0" stop-color="#212127"/>
      <stop offset="1" stop-color="#76767e"/>
    </linearGradient>
    <linearGradient id="linear-gradient-13" x1="224.25" y1="1024.03" x2="675.75" y2="1475.53" xlink:href="#linear-gradient-12"/>
    <linearGradient id="linear-gradient-14" y1="1014" y2="1465.5" xlink:href="#linear-gradient-12"/>
    <linearGradient id="linear-gradient-15" x1="224.25" y1="1003.98" x2="675.75" y2="1455.48" xlink:href="#linear-gradient-12"/>
    <linearGradient id="linear-gradient-16" y1="993.95" y2="1445.45" xlink:href="#linear-gradient-12"/>
    <linearGradient id="linear-gradient-17" x1="224.25" y1="983.93" x2="675.75" y2="1435.43" xlink:href="#linear-gradient-12"/>
    <linearGradient id="linear-gradient-18" y1="973.9" y2="1425.4" xlink:href="#linear-gradient-12"/>
    <linearGradient id="linear-gradient-19" x1="224.25" y1="963.87" x2="675.75" y2="1415.37" xlink:href="#linear-gradient-12"/>
    <linearGradient id="linear-gradient-20" y1="953.85" y2="1405.35" xlink:href="#linear-gradient-12"/>
    <linearGradient id="linear-gradient-21" x1="224.25" y1="943.82" x2="675.75" y2="1395.32" xlink:href="#linear-gradient-12"/>
  </defs>
  <g class="cls-5">
    <g id="Layer_3" data-name="Layer 3">
      <polygon class="cls-3" points="865.96 1.3 830.77 30.69 830.77 29.72 796.73 1.3 761.54 30.69 761.54 29.72 727.5 1.3 692.31 30.69 692.31 29.72 658.27 1.3 623.08 30.69 623.08 29.72 589.04 1.3 553.85 30.69 553.85 29.72 519.81 1.3 484.62 30.69 484.62 29.72 450.58 1.3 415.38 30.69 415.38 29.72 381.35 1.3 346.15 30.69 346.15 29.72 312.12 1.3 276.92 30.69 276.92 29.72 242.89 1.3 207.69 30.69 207.69 29.72 173.66 1.3 138.46 30.69 138.46 29.72 104.43 1.3 69.23 30.69 69.23 29.72 35.19 1.3 0 30.69 0 137.69 0 137.69 0 1201.3 0 1201.3 0 1308.31 35.19 1337.69 69.23 1309.27 69.23 1308.31 104.43 1337.69 138.46 1309.27 138.46 1308.31 173.66 1337.69 207.69 1309.27 207.69 1308.31 242.89 1337.69 276.92 1309.27 276.92 1308.31 312.12 1337.69 346.15 1309.27 346.15 1308.31 381.35 1337.69 415.38 1309.27 415.38 1308.31 450.58 1337.69 484.62 1309.27 484.62 1308.31 519.81 1337.69 553.85 1309.27 553.85 1308.31 589.04 1337.69 623.08 1309.27 623.08 1308.31 658.27 1337.69 692.31 1309.27 692.31 1308.31 727.5 1337.69 761.54 1309.27 761.54 1308.31 796.73 1337.69 830.77 1309.27 830.77 1308.31 865.96 1337.69 900 1309.27 900 1201.3 900 137.69 900 29.72 865.96 1.3"/>
      <g>
        <line class="cls-7" x1="0" y1="77.88" x2="900" y2="77.88"/>
        <line class="cls-9" x1="900" y1="87.91" y2="87.91"/>
        <line class="cls-8" x1="0" y1="97.94" x2="900" y2="97.94"/>
        <line class="cls-13" x1="900" y1="107.96" y2="107.96"/>
        <line class="cls-12" x1="0" y1="117.99" x2="900" y2="117.99"/>
        <line class="cls-10" x1="900" y1="128.01" y2="128.01"/>
        <line class="cls-6" x1="0" y1="138.04" x2="900" y2="138.04"/>
        <line class="cls-11" x1="900" y1="148.06" y2="148.06"/>
        <line class="cls-19" x1="0" y1="158.09" x2="900" y2="158.09"/>
        <line class="cls-18" x1="900" y1="168.11" y2="168.11"/>
      </g>
      <g>
        <line class="cls-17" x1="0" y1="1259.8" x2="900" y2="1259.8"/>
        <line class="cls-16" x1="900" y1="1249.78" y2="1249.78"/>
        <line class="cls-22" x1="0" y1="1239.75" x2="900" y2="1239.75"/>
        <line class="cls-24" x1="900" y1="1229.73" y2="1229.73"/>
        <line class="cls-20" x1="0" y1="1219.7" x2="900" y2="1219.7"/>
        <line class="cls-25" x1="900" y1="1209.68" y2="1209.68"/>
        <line class="cls-21" x1="0" y1="1199.65" x2="900" y2="1199.65"/>
        <line class="cls-23" x1="900" y1="1189.62" y2="1189.62"/>
        <line class="cls-14" x1="0" y1="1179.6" x2="900" y2="1179.6"/>
        <line class="cls-15" x1="900" y1="1169.57" y2="1169.57"/>
      </g>
      <polygon class="cls-4" points="0 1125.98 900 858.72 900 181.06 0 448.32 0 1125.98"/>
      <g>
        <path class="cls-1" d="M140.82,201.41l2.94,21.6c7.5,55.03,49.08,99.26,103.54,110.13l5.87,1.17c3,.6,3,4.89,0,5.49l-5.87,1.17c-54.47,10.87-96.04,55.1-103.54,110.13l-2.94,21.6c-.44,3.23-5.11,3.23-5.55,0l-2.94-21.6c-7.5-55.03-49.08-99.26-103.54-110.13l-5.87-1.17c-3-.6-3-4.89,0-5.49l5.87-1.17c54.47-10.87,96.04-55.1,103.54-110.13l2.94-21.6c.44-3.23,5.11-3.23,5.55,0Z"/>
        <path class="cls-1" d="M717.9,803.51l2.4,18.86c5.23,41.14,35.89,74.49,76.44,83.16l2.85.61c2.21.47,2.21,3.63,0,4.1l-2.85.61c-40.56,8.67-71.21,42.02-76.44,83.16l-2.4,18.86c-.31,2.44-3.85,2.44-4.16,0l-2.4-18.86c-5.23-41.14-35.89-74.49-76.44-83.16l-2.85-.61c-2.21-.47-2.21-3.63,0-4.1l2.85-.61c40.56-8.67,71.21-42.02,76.44-83.16l2.4-18.86c.31-2.44,3.85-2.44,4.16,0Z"/>
        <path class="cls-1" d="M815.45,686.23l1.55,11.45c3.89,28.73,25.57,51.84,54,57.55l2.96.6c1.56.31,1.56,2.55,0,2.87l-2.96.6c-28.43,5.71-50.11,28.82-54,57.55l-1.55,11.45c-.23,1.69-2.67,1.69-2.9,0l-1.55-11.45c-3.89-28.73-25.57-51.84-54-57.55l-2.96-.6c-1.56-.31-1.56-2.55,0-2.87l2.96-.6c28.43-5.71,50.11-28.82,54-57.55l1.55-11.45c.23-1.69,2.67-1.69,2.9,0Z"/>
      </g>
      <g>
        <path class="cls-28" d="M43.28,1146.19l807.37-.51c6.77,0,10.91-7.2,7.35-12.79l-2.76-4.32c-8.84-13.85-24.44-22.28-41.24-22.28l-324.38.51c-61.72,0-123.15-8.29-182.52-24.64l-26.49-7.29c-68.21-18.78-141.5-7.58-200.43,30.64l-41.26,26.76c-6.45,4.18-3.4,13.93,4.36,13.93Z"/>
        <path class="cls-27" d="M20.66,246.26v781.76c0,7.9,11.21,9.45,13.35,1.84h0c5.64-20.1,8.5-40.87,8.5-61.74v-73.7c0-6.45.26-12.9.77-19.32l12.16-152.05c2.52-31.57,1.48-63.33-3.12-94.67l-5.64-38.44c-4.47-30.47-6.42-61.25-5.83-92.04l1.33-68.76c.22-11.54-.26-23.08-1.43-34.56l-15.25-148.56c-.31-3.05-4.83-2.82-4.83.25Z"/>
        <path class="cls-26" d="M875.36,531.78v553.3c0,5.59-11.21,6.69-13.35,1.3h0c-5.64-14.22-8.5-28.93-8.5-43.7v-52.16c0-4.56-.26-9.13-.77-13.68l-12.16-107.62c-2.52-22.35-1.48-44.83,3.12-67.01l5.64-27.2c4.47-21.56,6.42-43.35,5.83-65.15l-1.33-48.67c-.22-8.17.26-16.33,1.43-24.46l15.25-105.15c.31-2.16,4.83-1.99,4.83.17Z"/>
        <path class="cls-2" d="M118.75,209.61c-11.05,0-13.69,15.09-3.27,18.7,72.35,25.09,199.14,76.82,316.9,163.51,152.88,112.55,197.88,116.53,418.78,86.58,13.74-1.86,23.98-13.37,23.98-26.95v-216.56c0-13.97-11.56-25.29-25.82-25.29H118.75Z"/>
      </g>
    </g>
  </g>
</svg>