<?xml version="1.0" encoding="UTF-8"?>
<svg id="Layer_1" xmlns="http://www.w3.org/2000/svg" version="1.1" viewBox="0 0 393 435.3">
  <!-- Generator: Adobe Illustrator 30.2.1, SVG Export Plug-In . SVG Version: 2.1.1 Build 1)  -->
  <defs>
    <style>
      .st0 {
        fill: #fff;
      }
    </style>
  </defs>
  <path class="st0" d="M70.4,202.3v54c0,15.3,8.8,27.8,24,40.4l94.8,78.5c3.9,3.2,9.6,2.7,12.8-1.2h0c3.2-3.8,2.7-9.4-1-12.7l-26.1-22.9c-1.2-1.1-1.3-2.9-.1-4.1h0c1-1,2.6-1.1,3.7-.2l31.5,25c4.5,3.5,10.9,3,14.7-1.3h0c4-4.5,3.4-11.4-1.2-15.3l-26.9-22.5c-1.4-1.2-1.5-3.4-.1-4.6h0c1.1-1.1,2.9-1.1,4.1-.2l34.8,28.3c4.7,3.8,11.7,3.2,15.6-1.5h0c4-4.8,3.3-12-1.6-15.9l-30.6-24.5c-1.9-1.5-2-4.4-.2-6h0c1.5-1.3,3.7-1.3,5.1,0l34.5,29.1c4.6,3.9,11.3,3.5,15.4-.9h0c4.4-4.7,3.9-12.2-1.1-16.3l-68.5-57.6c-3.7-3.1-9.6-2.7-13.6,0,0,0-4,3.7-14.2,13.8-7.8,7.6-19.3,15.3-31.5,4.3-8-7.2-7.6-18.8-2.1-24.1l19.1-17.7c-32.8-3.3-66-13.3-91.4-23.7h0v-.2Z"/>
  <path class="st0" d="M322.6,202.6v53.7c0,8.8-6.1,17.2-13.5,24.5-11.5,11.4-23.3,22.5-27.7,26-13.4-10.9-75-62.2-75-62.2-4.6-3.9-14.8-3.4-19.8.5l-20.7,20.1c-3.4,2.8-10.3,4.6-17-2.1s-3.4-13.3-.3-16.3l21.1-20.1c70.7,5.2,115.7-9.9,153-24.1h-.1Z"/>
  <path class="st0" d="M322.8,169.7s-3.4-63.6-57.6-95.2l-1.1,1.6h0l-7.5,11.4-.2.4h0l-28.8,44.2c-1.8,2.8-4.9,1.3-4-1.8l13.2-44.5h0l.2-.8,5.1-17.2.5-1.6h0l.5-1.6c-8.3-2.8-17.5-4.8-27.7-6.1l-16.4,88.2c-.6,3-4.5,3-5,0l-16.4-88.7c-10.2,1-19.5,3.1-27.8,5.8l.6,2.2h0c0,0,.2.9.2.9l18.7,63.3c.9,3.2-2.2,4.6-4,1.8l-28.8-44.2h0l-9-13.8c-51.4,31.4-57.2,95.5-57.2,95.5h-17.9v17.2c17.9,11.7,79.2,34.5,144,34.5s126.1-23.7,144-34.5v-17.2h-17.7v.2Z"/>
</svg>