<?xml version="1.0" encoding="UTF-8"?>
<svg id="Layer_6" data-name="Layer 6" xmlns="http://www.w3.org/2000/svg" viewBox="0 0 472.82 351.91">
  <defs>
    <style>
      .cls-1 {
        fill: #009db6;
      }

      .cls-2 {
        fill: #fff;
      }

      .cls-3 {
        fill: #7dd3e6;
      }
    </style>
  </defs>
  <g>
    <path class="cls-3" d="M236.41,339.9c-9.17,0-17.96-2.76-25.44-7.99L25.88,202.45c-8.69-6.08-13.88-15.98-13.88-26.49,0-10.51,5.19-20.42,13.88-26.5L210.97,19.99c7.47-5.23,16.27-7.99,25.44-7.99s17.96,2.76,25.44,7.99l185.1,129.47c8.69,6.08,13.88,15.98,13.88,26.5,0,10.51-5.19,20.41-13.88,26.49l-185.1,129.47c-7.47,5.23-16.27,7.99-25.44,7.99Z"/>
    <path class="cls-2" d="M236.41,24c6.5,0,13.01,1.94,18.56,5.82l185.1,129.47c11.68,8.17,11.68,25.15,0,33.32l-185.1,129.47c-5.55,3.88-12.05,5.82-18.56,5.82s-13.01-1.94-18.56-5.82L32.76,192.61c-11.68-8.17-11.68-25.15,0-33.32L217.85,29.82c5.55-3.88,12.05-5.82,18.56-5.82M236.41,0h0c-11.64,0-22.81,3.51-32.31,10.16L19,139.63C7.1,147.95,0,161.53,0,175.95s7.1,28,19,36.33l185.09,129.47c9.5,6.64,20.67,10.16,32.31,10.16s22.81-3.51,32.31-10.16l185.1-129.47c11.9-8.32,19-21.9,19-36.33s-7.1-28-19-36.33L268.72,10.16C259.22,3.51,248.05,0,236.41,0h0Z"/>
    <path d="M236.41,24c6.5,0,13.01,1.94,18.56,5.82l185.1,129.47c11.68,8.17,11.68,25.15,0,33.32l-185.1,129.47c-5.55,3.88-12.05,5.82-18.56,5.82s-13.01-1.94-18.56-5.82L32.76,192.61c-11.68-8.17-11.68-25.15,0-33.32L217.85,29.82c5.55-3.88,12.05-5.82,18.56-5.82M236.41,20h0c-7.52,0-14.73,2.26-20.85,6.55L30.47,156.01c-6.65,4.65-10.47,11.92-10.47,19.94s3.81,15.29,10.47,19.94l185.09,129.47c6.12,4.28,13.33,6.55,20.85,6.55s14.73-2.26,20.85-6.55l185.1-129.47c6.65-4.65,10.47-11.92,10.47-19.94s-3.81-15.29-10.47-19.94L257.26,26.55c-6.12-4.28-13.33-6.55-20.85-6.55h0Z"/>
  </g>
  <circle class="cls-1" cx="235.32" cy="175.95" r="118.81"/>
  <path class="cls-1" d="M78.92,140.01c104.99-42.72,209.98-42.64,314.97,0,3.25,1.32,5.39,4.46,5.39,7.97v57.3c0,3.34-1.93,6.39-4.97,7.79-108.92,49.94-214.3,50.05-316.03.06-2.92-1.43-4.75-4.43-4.75-7.68v-57.47c0-3.51,2.14-6.65,5.39-7.97Z"/>
  <path class="cls-3" d="M236.41,70.86c-57.95,0-105.1,47.15-105.1,105.1s47.15,105.09,105.1,105.09,105.1-47.15,105.1-105.09-47.15-105.1-105.1-105.1ZM242.32,142.29c14.23-.46,27.9-2.47,40.34-5.84,2.11,11.01,3.34,22.81,3.58,34.99h-43.92v-29.15ZM242.32,130.21v-47.09c7.22.46,14.23,1.74,20.91,3.75,7.1,9.83,12.79,22.81,16.74,37.74-11.59,3.19-24.42,5.13-37.65,5.6ZM230.25,130.23c-13.27-.42-25.96-2.26-37.45-5.36,3.95-15.03,9.66-28.12,16.79-38,6.61-1.99,13.52-3.27,20.66-3.74v47.09ZM230.25,142.3v29.13h-43.67c.25-12.09,1.47-23.83,3.56-34.8,12.39,3.3,25.98,5.25,40.1,5.67ZM174.51,171.43h-31.01c.84-17.48,6.53-33.71,15.74-47.38,5.82,3.44,12.32,6.45,19.35,8.98-2.42,12.13-3.82,25.09-4.08,38.4ZM174.58,183.5c.43,13.31,2,26.21,4.57,38.21-6.64,2.35-12.82,5.13-18.41,8.29-9.55-13.32-15.66-29.26-17.05-46.51h30.89ZM186.66,183.5h43.59v29.13c-13.87.42-27.28,2.33-39.54,5.54-2.26-10.87-3.64-22.56-4.05-34.68ZM230.25,224.71v44.06c-7.13-.47-14.05-1.74-20.66-3.74-6.69-9.26-12.12-21.31-16.03-35.15,11.31-2.98,23.75-4.76,36.69-5.17ZM242.32,224.73c13.02.45,25.53,2.28,36.87,5.33-3.91,13.76-9.32,25.76-15.96,34.98-6.69,2.02-13.69,3.3-20.91,3.75v-44.06ZM242.32,212.65v-29.15h43.84c-.41,12.16-1.82,23.92-4.1,34.85-12.31-3.29-25.79-5.25-39.74-5.7ZM298.24,183.5h30.89c-1.4,17.38-7.6,33.42-17.27,46.8-5.54-3.18-11.67-5.97-18.27-8.35,2.61-12.09,4.21-25.07,4.64-38.45ZM298.31,171.43c-.26-13.43-1.67-26.47-4.11-38.64,6.97-2.55,13.4-5.58,19.17-9.04,9.34,13.73,15.11,30.07,15.95,47.68h-31.01ZM305.88,114.15c-4.38,2.51-9.23,4.77-14.46,6.74-2.55-9.47-5.76-18.25-9.56-26.08,9.04,5.09,17.16,11.64,24.01,19.34ZM190.97,94.81c-3.84,7.92-7.08,16.81-9.64,26.4-5.26-1.97-10.17-4.23-14.64-6.77,6.91-7.83,15.12-14.48,24.28-19.63ZM168.53,239.49c4.18-2.24,8.72-4.26,13.55-6.03,2.43,8.53,5.41,16.48,8.87,23.63-8.36-4.7-15.92-10.65-22.42-17.6ZM281.85,257.1c3.43-7.08,6.39-14.95,8.81-23.39,4.78,1.78,9.26,3.8,13.39,6.04-6.46,6.84-13.94,12.71-22.2,17.35Z"/>
  <g>
    <path d="M98.63,169.91c.03,1.55.04,2.33.07,3.88h-14.47c0-10.87,0-16.3,0-27.17,10.43-3.81,20.8-7.29,31.42-10.55.19,6.3.29,9.45.48,15.74-7.15,1.2-10.71,1.85-17.79,3.23.02,1.07.03,1.61.05,2.68,7.1-1.19,10.67-1.74,17.83-2.77.17,5.71.26,8.57.43,14.28-7.22.25-10.82.38-18.03.67Z"/>
    <path d="M152.46,173.79h-13.64c-2.06-2.31-3.09-3.44-5.15-5.62.07,2.25.11,3.37.19,5.62h-13.96c-.4-12.86-.8-25.73-1.2-38.59,10.02-2.88,20.27-5.37,30.49-7.41.76.85,1.13,1.28,1.89,2.14.35,11.28.71,22.55,1.06,33.83.01.39-.13.79-.43,1.21-.3.42-.64.82-1.03,1.19-.39.38-.78.71-1.15.99-.38.29-.66.47-.84.56,1.51,2.39,2.26,3.61,3.77,6.08ZM134.43,151.04c.39.21.82.28,1.28.22.52-.07.97-.25,1.35-.56.38-.31.55-.82.53-1.55-.02-.68-.23-1.14-.62-1.36-.39-.22-.85-.3-1.38-.22-.46.07-.88.27-1.26.6-.38.33-.55.83-.53,1.5.02.71.23,1.16.62,1.37Z"/>
    <path d="M154.2,129.36c.68-1.15,1.01-1.72,1.69-2.88,9.68-1.85,19.52-3.35,29.32-4.46.76,1.03,1.14,1.55,1.9,2.6.32,15.45.64,30.91.97,46.36-.7,1.13-1.05,1.69-1.75,2.81h-28.99c-.74-1.02-1.1-1.53-1.84-2.54-.43-13.96-.86-27.93-1.29-41.89ZM169.95,150.64c.4.27.83.39,1.29.36.53-.04.98-.22,1.36-.55.38-.33.56-.91.54-1.74-.02-.79-.23-1.33-.63-1.62-.4-.29-.86-.42-1.39-.37-.47.04-.89.24-1.27.59-.38.35-.56.92-.54,1.7.02.82.23,1.37.63,1.64Z"/>
    <path d="M203.13,120.29c3.22,3.77,4.83,5.69,8.03,9.59-.04-4.05-.07-6.07-.11-10.12,5.73-.33,8.6-.45,14.34-.59l.27,54.63h-12.71c-3.12-4.08-4.69-6.11-7.84-10.11.06,4.04.08,6.07.14,10.11h-14.01c-.34-17.44-.69-34.89-1.03-52.33,5.16-.55,7.74-.78,12.92-1.17Z"/>
    <path d="M228.62,144.89c-.04-10.32-.05-15.48-.09-25.79,9.58-.2,19.24-.06,28.8.43-.09,10.24-.14,15.36-.24,25.59-2.37-.06-3.55-.09-5.92-.13-.06,9.6-.13,19.2-.19,28.81h-16.37c0-9.65-.02-19.29-.02-28.94-2.39,0-3.58.01-5.97.04Z"/>
    <path d="M260.09,155.41c.07-6.45.1-9.68.17-16.14,8.1.28,12.14.49,20.22,1.01-.12,6.26-.18,9.4-.3,15.66-8.03-.28-12.05-.39-20.09-.54Z"/>
    <path d="M315.85,160.34c-.16,5.38-.25,8.07-.41,13.45h-30.75c-.7-1.12-1.05-1.69-1.75-2.82.31-15.51.63-31.03.94-46.54.76-1.05,1.14-1.58,1.9-2.62,10.39,1.13,20.84,2.7,31.11,4.67-.18,5.83-.27,8.74-.44,14.57-6.52-.85-9.78-1.23-16.33-1.9-.03,1.08-.04,1.62-.07,2.71,5.83.55,8.75.86,14.56,1.54-.17,5.71-.26,8.57-.43,14.28-5.82-.36-8.73-.53-14.56-.82-.03,1.08-.04,1.63-.07,2.71,6.54.28,9.8.43,16.32.78Z"/>
    <path d="M332.66,129.74c2.98,4,4.46,5.95,7.43,9.73.1-3.16.16-4.74.26-7.91,5.55,1.37,8.32,2.1,13.81,3.66-.4,12.86-.8,25.72-1.2,38.58h-12.71c-2.98-3.16-4.46-4.82-7.43-8.25-.11,3.3-.16,4.95-.27,8.25h-14.01c.48-15.58.97-31.15,1.45-46.73,5.08.99,7.61,1.53,12.66,2.67Z"/>
    <path d="M385.19,145.35c.35.13.73.37,1.13.71.4.34.76.72,1.1,1.14.34.42.62.83.84,1.25.22.42.33.78.33,1.08,0,8.55,0,12.82,0,21.36,0,.3-.12.62-.35.95-.23.33-.53.65-.88.93-.35.29-.74.53-1.16.72-.42.19-.81.29-1.18.29h-28.99c.38-12.57.76-25.14,1.14-37.71,9.43,2.71,18.84,5.82,28.02,9.27ZM370.84,158.81c.38.06.58.08.96.14.27.04.57.05.89.04.32-.01.62-.07.9-.16.28-.09.51-.23.69-.41.19-.18.28-.42.29-.71,0-.3-.06-.55-.21-.78-.15-.22-.33-.4-.56-.53-.23-.13-.47-.23-.75-.31-.27-.08-.53-.14-.77-.18-.55-.1-.82-.15-1.37-.24-.03,1.26-.04,1.89-.07,3.14Z"/>
  </g>
  <g>
    <path d="M104.28,179.8c.28,0,.69.22,1.23.67.53.45,1.06,1,1.58,1.64.52.64.97,1.3,1.35,1.99.38.69.57,1.25.56,1.66-.25,9.72-.37,14.58-.62,24.3-.01.42-.22.96-.64,1.61-.41.66-.89,1.27-1.43,1.84-.54.57-1.08,1.02-1.62,1.38-.54.35-.95.46-1.23.35-7.77-3.23-11.62-4.97-19.24-8.7,0-10.69,0-16.03,0-26.72h20.05ZM95.05,197.25c.29.07.44.11.73.18.21.05.44.08.68.07.24,0,.47-.05.68-.13.21-.09.39-.22.53-.4.14-.18.22-.42.22-.73,0-.3-.05-.57-.16-.79-.11-.22-.25-.39-.43-.52-.17-.13-.37-.22-.57-.3-.21-.07-.41-.13-.59-.16-.42-.08-.63-.12-1.05-.21-.02,1.2-.03,1.79-.05,2.99Z"/>
    <path d="M135.62,213.34c-.16,5.33-.24,8-.4,13.33-9.91-3.04-14.83-4.75-24.56-8.55.34-12.77.68-25.55,1.02-38.32h24.95c-.18,5.77-.26,8.66-.44,14.43-4.98-.47-7.47-.72-12.43-1.24-.03.95-.04,1.43-.07,2.38,4.96.62,7.45.91,12.43,1.47-.17,5.59-.25,8.39-.42,13.98-4.97-1-7.44-1.54-12.38-2.67-.03.93-.04,1.39-.07,2.32,4.93,1.22,7.41,1.8,12.38,2.89Z"/>
    <path d="M153.05,197.83c.2-7.15.3-10.73.5-17.88,4.24,0,6.36,0,10.59,0-.19,7.53-.29,11.3-.48,18.83-3.62,10.97-7.34,21.87-11.2,32.76-1.53-.38-2.29-.58-3.81-.98-3.2-11.38-6.53-22.72-10.07-33.99.2-6.68.3-10.02.5-16.7,4.55,0,6.83,0,11.38,0-.2,7.1-.31,10.65-.51,17.75.52,2.22.78,3.34,1.3,5.6.72-2.14,1.08-3.21,1.79-5.39Z"/>
    <path d="M190.66,221.99c-.12,6.7-.17,10.06-.29,16.76-10.17-1.37-15.23-2.24-25.31-4.37.46-18.19.91-36.39,1.37-54.58h24.95c-.13,7.26-.19,10.89-.31,18.15-5.02-.21-7.53-.33-12.54-.6-.03,1.26-.04,1.9-.07,3.16,5.02.32,7.53.46,12.55.71-.12,7.03-.18,10.55-.3,17.58-5.05-.45-7.57-.71-12.61-1.29-.03,1.23-.04,1.85-.07,3.08,5.04.62,7.57.9,12.62,1.39Z"/>
    <path d="M218.67,215.74c-.07,10.28-.1,15.42-.18,25.7-10.22-.53-15.33-.98-25.5-2.27.32-19.76.64-39.52.97-59.29,4.42,0,6.63,0,11.06,0-.15,11.75-.29,23.5-.43,35.26,5.63.31,8.45.43,14.09.6Z"/>
    <path d="M241.46,179.8c.28,0,.7.39,1.25,1.16.55.77,1.09,1.69,1.63,2.75.54,1.06,1.01,2.14,1.42,3.26.41,1.11.61,2.01.62,2.7.06,13.41.11,26.82.17,40.23,0,.69-.2,1.69-.6,3.02-.41,1.33-.88,2.64-1.42,3.94-.54,1.3-1.09,2.44-1.65,3.43-.56.99-.98,1.48-1.27,1.48-6.24.1-9.36.08-15.59-.1-.29,0-.71-.51-1.27-1.5-.55-.99-1.1-2.14-1.64-3.44-.54-1.3-1.01-2.62-1.41-3.95-.4-1.32-.6-2.33-.6-3.02.08-13.37.16-26.74.23-40.12,0-.68.21-1.58.62-2.69.41-1.11.89-2.19,1.43-3.25.54-1.05,1.08-1.97,1.63-2.74.55-.77.97-1.16,1.25-1.16h15.21ZM232.78,212.21c.33.17.67.4,1.01.69.34-.29.69-.51,1.04-.68.36-.17.54-.66.54-1.46,0-1.03-.17-1.72-.5-2.06-.34-.34-.74-.61-1.04-.61s-.71.26-1.04.6c-.34.34-.5,1.03-.51,2.06,0,.8.17,1.29.5,1.46Z"/>
    <path d="M260.06,233.58c.03,2.95.04,4.43.07,7.38-4.38.31-6.57.43-10.95.59-.1-20.58-.21-41.17-.32-61.75h23.57c.57,1.3.86,1.95,1.43,3.24.22,15.1.45,30.2.67,45.31-.54,1.68-.81,2.52-1.35,4.2-5.24.5-7.86.71-13.12,1.04ZM260.85,208.22c.3.36.63.53.99.52.41-.01.76-.21,1.05-.59.29-.38.44-1.07.43-2.09-.01-.96-.17-1.63-.47-2.01-.3-.38-.66-.57-1.06-.56-.36.01-.69.22-.98.62-.29.41-.44,1.09-.43,2.05,0,1.02.17,1.71.47,2.06Z"/>
    <path d="M307.54,179.8c.46,18.06.92,36.13,1.39,54.19-4.33.94-6.5,1.37-10.85,2.17-.1-4.25-.14-6.38-.24-10.63-1.86,4.61-2.79,6.94-4.66,11.65-2.07-4.05-3.1-6.11-5.16-10.31.08,4.38.13,6.57.21,10.94-4.37.67-6.55.97-10.93,1.5-.31-19.84-.62-39.68-.93-59.52h9.71c2.45,4.97,3.69,7.42,6.16,12.22,2.25-4.98,3.37-7.42,5.61-12.22h9.7Z"/>
    <path d="M336.05,213.45c.16,5.35.24,8.02.4,13.37-9.91,3.02-14.91,4.34-24.97,6.6-.47-17.88-.94-35.75-1.41-53.63h24.95c.17,5.79.26,8.69.44,14.48-4.98.47-7.47.68-12.47,1.09.03,1.12.05,1.68.08,2.81,4.99-.48,7.49-.74,12.46-1.29.17,5.61.25,8.41.42,14.02-4.97,1-7.46,1.47-12.45,2.34.03,1.09.05,1.64.08,2.74,4.99-.95,7.48-1.45,12.45-2.53Z"/>
    <path d="M347.32,179.8c2.47,3.23,3.7,4.77,6.16,7.68-.09-3.07-.13-4.61-.22-7.68h10.74c.31,12.33.62,24.65.93,36.98-3.79,1.52-5.69,2.26-9.5,3.67-2.4-2.21-3.61-3.41-6.03-5.98.1,3.22.14,4.83.24,8.06-4.23,1.48-6.35,2.18-10.61,3.51-.47-15.41-.93-30.82-1.4-46.24h9.71Z"/>
    <path d="M366.81,196.78c-.16-6.79-.24-10.19-.4-16.99h21.54v12.6c-1.75.39-2.62.59-4.38.97.04,6.08.07,9.12.11,15.2-4.79,2.26-7.2,3.35-12.05,5.42-.15-7.23-.23-10.84-.38-18.07-1.78.35-2.67.52-4.45.86Z"/>
  </g>
  <g>
    <path class="cls-2" d="M247.54,304.71c-.48,0-.96-.23-1.25-.67l-11.57-17.3-15.28,10.23c-.25.17-.54.25-.83.25-.2,0-.41-.04-.6-.12-.47-.21-.8-.63-.88-1.14l-9.79-61.4c-.09-.58.16-1.16.65-1.48.25-.17.54-.25.83-.25.27,0,.54.07.78.22l53.02,32.48c.44.27.71.74.72,1.25,0,.51-.24.99-.67,1.28l-15.28,10.23,11.57,17.3c.46.69.28,1.62-.41,2.08l-10.16,6.8c-.26.17-.55.25-.83.25Z"/>
    <path d="M208.81,234.33l53.02,32.47-16.53,11.06,12.41,18.55-10.16,6.8-12.41-18.55-16.53,11.06-9.79-61.4M208.81,231.33c-.58,0-1.16.17-1.67.51-.97.65-1.48,1.81-1.29,2.97l9.79,61.4c.16,1.01.83,1.87,1.76,2.28.38.17.79.25,1.2.25.59,0,1.17-.17,1.67-.51l14.04-9.39,10.74,16.05c.44.66,1.13,1.12,1.91,1.27.19.04.39.06.58.06.59,0,1.17-.17,1.67-.51l10.16-6.8c1.38-.92,1.75-2.78.82-4.16l-10.74-16.05,14.04-9.39c.85-.57,1.35-1.53,1.33-2.55s-.56-1.96-1.43-2.5l-53.02-32.47c-.48-.29-1.02-.44-1.57-.44h0Z"/>
  </g>
</svg>