<?xml version="1.0" encoding="UTF-8"?>
<svg id="Layer_2" data-name="Layer 2" xmlns="http://www.w3.org/2000/svg" viewBox="0 0 447.44 212.23">
  <defs>
    <style>
      .cls-1 {
        fill: #64e9ff;
      }

      .cls-2 {
        fill: #afed4c;
      }

      .cls-3 {
        fill: #fff;
      }

      .cls-4 {
        fill: #cc9dff;
      }
    </style>
  </defs>
  <path class="cls-3" d="M182.7,127.4c-.45,10.86-.67,22.52-.67,34.98s.22,24.12.67,34.98h-22.64v-26.21h-35.46v26.21h-22.64c.51-12.46.77-24.12.77-34.98s-.26-22.51-.77-34.98h22.64v26.21h35.46v-26.21h22.64Z"/>
  <path class="cls-3" d="M342.17,127.5c-.45,10.86-.67,22.48-.67,34.88s.22,24.12.67,34.98h-34.5l-23.32-52.61,1.73,52.61h-24.76c.51-12.46.77-24.12.77-34.98s-.26-22.42-.77-34.88h35.46l23.42,54.06-1.64-54.06h23.61Z"/>
  <path class="cls-3" d="M389.58,157.47h41.14v39.89h-16.96l-2.02-17.06c-1.93,6.1-5.36,10.63-10.31,13.59-4.95,2.96-10.98,4.43-18.12,4.43-6.49,0-12.25-1.45-17.3-4.34-5.04-2.89-8.99-7.03-11.85-12.43-2.86-5.4-4.29-11.69-4.29-18.89,0-11.5,3.44-20.59,10.31-27.27,6.87-6.68,17.57-10.02,32.09-10.02,8.29,0,15.59,1.35,21.92,4.05,6.33,2.7,11.71,6.87,16.14,12.53-2.89,1.48-8.54,4.43-16.96,8.86l-2.41,1.35c-2.5-2.51-5.43-4.38-8.77-5.64-3.34-1.25-6.87-1.88-10.6-1.88-6.17,0-10.76,1.62-13.78,4.87-3.02,3.24-4.53,7.24-4.53,12,0,5.14,1.62,9.28,4.87,12.43,3.24,3.15,8.21,4.72,14.89,4.72,2.89,0,5.7-.42,8.43-1.25,2.73-.83,5.03-2.28,6.89-4.34h-18.79v-15.61Z"/>
  <path class="cls-4" d="M190.29,161.21c.62-16.57,13.94-29.88,30.51-30.51-.86,21.63-8.88,29.65-30.51,30.51ZM253.74,161.21c-.62-16.57-13.94-29.88-30.51-30.51.86,21.63,8.88,29.65,30.51,30.51ZM223.23,194.15c16.57-.62,29.88-13.94,30.51-30.51-21.63.86-29.65,8.88-30.51,30.51ZM190.29,163.64c.62,16.57,13.94,29.88,30.51,30.51-.86-21.63-8.88-29.65-30.51-30.51Z"/>
  <path class="cls-3" d="M257.62,110.7c-13.76,0-25.98-2.95-33.45-9.66-7.48-6.71-11.21-16.28-11.21-28.71s3.74-22.39,11.21-29.66c7.48-7.27,19.11-10.9,34.9-10.9,9.92,0,17.44,2.26,24.24,5.68,11.63,5.84,14.52,20.35,2.66,29.75-2,1.58-6.28,4.03-10.26,6.18-1.44.78-3.2-1.25-1.92-2.26,9.47-7.44,4.39-12.24-2.1-15.55-4.24-2.16-8.82-2.83-13.36-2.83-6.71,0-11.7,1.77-14.99,5.29-3.28,3.53-4.93,7.88-4.93,13.05,0,5.59,1.76,10.15,5.29,13.68,3.53,3.53,8.92,5.29,16.19,5.29,8.01,0,12.77-.38,20.66-4,9.83-4.51,16.79-10.52,26.02-25.64.37-.6,1.29-.23,1.14.46-1.96,8.94-3.79,15.55-9,25.59-5.21,10.04-17.34,24.25-41.11,24.25Z"/>
  <path class="cls-3" d="M313.67,110.05c.49-11.25.73-20.54.73-27.88,0-3.64-.05-7.46-.15-11.46-.24-9.81,7.66-17.88,17.47-17.88h.27c3.68,0,6.55,3.02,6.39,6.62-.34,7.96-.52,15.53-.52,22.72,0,7.69.24,16.98.73,27.88,0,0-24.94,0-24.94,0Z"/>
  <path class="cls-3" d="M372.98,90.88c26.55-.14,45.8-.52,57.74-1.15-.49,2.87-.79,5.82-.89,8.86-.11,3.04-.16,6.86-.16,11.48h-81.43c.56-13.55.84-26.23.84-38.04s-.28-24.49-.84-38.04h81.43v18.97h-56.7v10.06c3.35.07,8.31.1,14.88.1,11.11,0,22.6-.21,34.48-.63v18.03c-11.88-.42-23.37-.63-34.48-.63-6.57,0-11.53.04-14.88.11v10.9Z"/>
  <path class="cls-1" d="M310.4,52.68c-.54-.31-.73-1-.41-1.54,5.93-10.27,2.4-23.44-7.87-29.37-.54-.31-.73-1-.41-1.54s1-.73,1.54-.41c10.27,5.93,23.44,2.4,29.37-7.87.31-.54,1-.73,1.54-.41s.73,1,.41,1.54c-5.93,10.27-2.4,23.44,7.87,29.37.54.31.73,1,.41,1.54s-1,.73-1.54.41c-10.27-5.93-23.44-2.4-29.37,7.87-.31.54-1,.73-1.54.41Z"/>
  <path class="cls-3" d="M19.36,144.55c.01,1.37.02,2.81.02,4.34,1.8-.06,5.33-.22,10.6-.48,15.29-.64,25.47-1,30.54-1.06-2.76,1.93-7.23,5.14-13.39,9.64-6.62,4.75-12.01,8.59-16.19,11.51-4.18,2.92-8.03,5.38-11.56,7.37v21.49h73.91c0-4.5.05-8.25.14-11.27.1-3.02.37-6.04.82-9.06-3.15.06-6.01.16-8.58.29-2.57.13-4.82.23-6.75.29-15.22.45-24.67.71-28.33.77,5.59-3.53,13.52-8.96,23.8-16.28,9.19-6.49,15.48-10.86,18.89-13.1v-21.58h-37.88c-8.21,3.14-17.31,7.37-27.84,12.87l-8.2,4.28Z"/>
  <path class="cls-3" d="M178.58,33.87v39.82c0,3.29-.26,5.97-.79,8.07-.52,2.1-2.18,4-4.98,5.71-2.8,1.71-7.2,2.57-13.2,2.57-5.52,0-9.52-.84-12-2.52-2.48-1.68-3.95-3.47-4.4-5.4-.46-1.92-.68-4.42-.68-7.49v-40.77h-25.99v42.44c0,.57,0,1.14,0,1.7,6.37.98,10.21,2.32,10.46,2.41l3.9,1.39,1.12,3.99c2.64,9.4,5.93,17.03,10.33,23.84,4.86.98,10.5,1.47,16.94,1.47,16.28,0,27.86-3.35,34.74-10.06,6.88-6.71,10.39-15.2,10.53-25.47v-41.71h-25.99Z"/>
  <path class="cls-2" d="M141.1,121.46c-46.35-14.11-67.48-14.25-117.24,11.72,16.78-44.29,10.73-74.98-8.26-112.6,21.85,5.64,36.15,7.18,57.44,5.14-2.78,28.62-5.45,50.26-21.03,74.99,38.01-24.94,72.31-12.75,72.31-12.75,3.59,12.77,8.66,23.61,16.77,33.51Z"/>
</svg>