<?xml version="1.0" encoding="UTF-8"?>
<svg id="Layer_2" data-name="Layer 2" xmlns="http://www.w3.org/2000/svg" xmlns:xlink="http://www.w3.org/1999/xlink" viewBox="0 0 362.04 362.04">
  <defs>
    <style>
      .cls-1 {
        fill: none;
      }

      .cls-2 {
        fill: #ffa9c6;
      }

      .cls-3 {
        stroke: #000;
        stroke-linecap: round;
        stroke-linejoin: round;
        stroke-width: 3px;
      }

      .cls-3, .cls-4 {
        fill: #fff;
      }

      .cls-5 {
        fill: #ff75a4;
      }

      .cls-6 {
        clip-path: url(#clippath);
      }
    </style>
    <clipPath id="clippath">
      <circle class="cls-1" cx="181.02" cy="181.02" r="157.02"/>
    </clipPath>
  </defs>
  <g>
    <path class="cls-2" d="M181.02,350.04c-93.2,0-169.02-75.82-169.02-169.02S87.82,12,181.02,12s169.02,75.82,169.02,169.02-75.82,169.02-169.02,169.02Z"/>
    <path class="cls-4" d="M181.02,24c86.72,0,157.02,70.3,157.02,157.02s-70.3,157.02-157.02,157.02S24,267.74,24,181.02,94.3,24,181.02,24M181.02,0c-24.43,0-48.14,4.79-70.47,14.24-21.56,9.12-40.92,22.17-57.53,38.78-16.62,16.62-29.67,35.97-38.78,57.53C4.79,132.89,0,156.59,0,181.02s4.79,48.14,14.24,70.47c9.12,21.56,22.17,40.92,38.78,57.53,16.62,16.62,35.97,29.67,57.53,38.78,22.33,9.45,46.04,14.24,70.47,14.24s48.14-4.79,70.47-14.24c21.56-9.12,40.92-22.17,57.53-38.78,16.62-16.62,29.67-35.97,38.78-57.53,9.45-22.33,14.24-46.04,14.24-70.47s-4.79-48.14-14.24-70.47c-9.12-21.56-22.17-40.92-38.78-57.53-16.62-16.62-35.97-29.67-57.53-38.78C229.16,4.79,205.45,0,181.02,0h0Z"/>
    <path d="M181.02,24c86.72,0,157.02,70.3,157.02,157.02s-70.3,157.02-157.02,157.02S24,267.74,24,181.02,94.3,24,181.02,24M181.02,20c-43.01,0-83.45,16.75-113.86,47.16-30.41,30.41-47.16,70.85-47.16,113.86s16.75,83.45,47.16,113.86c30.41,30.41,70.85,47.16,113.86,47.16s83.45-16.75,113.86-47.16c30.41-30.41,47.16-70.85,47.16-113.86s-16.75-83.45-47.16-113.86c-30.41-30.41-70.85-47.16-113.86-47.16h0Z"/>
  </g>
  <g class="cls-6">
    <polygon class="cls-5" points="181.02 181.02 188.86 347.34 247.61 333.63 181.02 181.02"/>
    <polygon class="cls-5" points="181.02 181.02 304.17 293.09 336.02 241.84 181.02 181.02"/>
    <polygon class="cls-5" points="181.02 181.02 347.34 173.19 333.63 114.43 181.02 181.02"/>
    <polygon class="cls-5" points="181.02 181.02 293.09 57.87 241.84 26.02 181.02 181.02"/>
    <polygon class="cls-5" points="181.02 181.02 173.19 14.7 114.43 28.41 181.02 181.02"/>
    <polygon class="cls-5" points="181.02 181.02 57.87 68.96 26.02 120.2 181.02 181.02"/>
    <polygon class="cls-5" points="181.02 181.02 14.7 188.86 28.41 247.61 181.02 181.02"/>
    <polygon class="cls-5" points="181.02 181.02 68.96 304.17 120.2 336.02 181.02 181.02"/>
  </g>
  <g>
    <path d="M247.02,191.65s-.04.07-.07.1l-13.53,24.42c-2.25,5.94-7.59,10.5-14.3,11.45l-27.53,3.9-8.15,14.91c-.37,1.07-1.31,1.85-2.43,2.01-1.13.16-2.24-.33-2.89-1.26l-8.65-12.53-30.84,4.37c-9.82,1.39-18.94-5.47-20.33-15.29l-5.64-39.82c-.65-4.57.49-8.99,2.89-12.55l13.86-25.47.43-.8s.04-.07.06-.1c2.68-4.59,7.36-7.96,13.01-8.76l80.49-11.4c9.82-1.39,18.95,5.47,20.34,15.29l5.63,39.82c.6,4.22-.32,8.31-2.35,11.71Z"/>
    <path class="cls-4" d="M195.37,216.77c-.53.07-1.05-.15-1.35-.59l-8.58-12.42-30.9,4.38c-7.77,1.1-14.96-4.31-16.06-12.08l-5.61-39.63c-1.1-7.77,4.31-14.96,12.08-16.06l77.67-11c7.77-1.1,14.96,4.31,16.06,12.08l5.61,39.63c1.1,7.77-4.31,14.96-12.08,16.06l-30.91,4.38-4.8,14.32c-.17.5-.61.87-1.13.94Z"/>
    <path class="cls-5" d="M218.43,160.05c0,14.75-14,26.51-21.61,29.81-1.17.51-2.27.89-3.51.59-13.45-3.29-24.99-9.84-30.23-19.65-8.14-15.27,13.06-30.28,25.94-16.36,7.59-17.39,29.4-10.26,29.4,5.61Z"/>
  </g>
  <g>
    <path d="M94.56,125.77c-1.89,2.95-4.08,5.15-6.56,6.6-2.48,1.46-5.23,2.08-8.24,1.88-3.01-.2-6.25-1.33-9.71-3.4-1.51-.93-3.15-1.96-4.9-3.08-1.75-1.12-3.4-2.2-4.95-3.24-3.17-2.2-5.42-4.6-6.76-7.21-1.34-2.61-1.84-5.35-1.51-8.23.33-2.88,1.41-5.75,3.25-8.61,1.48-2.3,3.13-4.17,4.95-5.6,1.82-1.43,3.71-2.43,5.69-3.02,1.97-.59,3.92-.76,5.85-.51,1.93.25,3.72.88,5.38,1.91.33.21.55.49.67.83.12.34.09.64-.08.91l-6.21,9.67c-.21.32-.42.54-.66.66-.23.12-.48.19-.76.22-.26,0-.63,0-1.12,0s-1,.11-1.53.34c-.54.23-1.04.71-1.51,1.44-.69,1.08-.88,2.11-.56,3.1.32.99,1.15,1.96,2.5,2.9,2.97,2.03,6.07,4.02,9.3,5.97,1.68,1,3.08,1.42,4.2,1.28,1.12-.14,2.03-.76,2.72-1.83.47-.73.75-1.45.85-2.17.1-.72-.04-1.42-.42-2.12s-1.02-1.34-1.93-1.92l-.05-.04-1.32,2.06c-.21.32-.53.5-.97.55-.44.05-.86-.06-1.26-.32l-6.07-3.9c-.4-.26-.67-.6-.81-1.02-.14-.42-.11-.79.1-1.11l7.73-12.03c.21-.32.53-.5.97-.55.44-.05.86.06,1.26.32l7.11,4.57c3.28,2.11,5.62,4.52,7.02,7.23,1.4,2.71,1.95,5.57,1.65,8.57-.3,3-1.4,5.97-3.29,8.92Z"/>
    <path d="M108.05,106.56c-.31.23-.67.28-1.1.17-.43-.11-.78-.36-1.07-.75l-24.96-33.77c-.28-.38-.42-.8-.4-1.24.02-.44.18-.78.49-1.01l12.38-9.15c4.01-2.97,7.99-4.15,11.92-3.56,3.93.6,7.35,2.86,10.26,6.8,1.73,2.33,2.8,4.68,3.23,7.03.42,2.35.37,4.54-.17,6.55l13.95,8.12c.24.15.42.31.55.48.23.31.34.65.33,1.01-.01.36-.15.63-.4.82l-8.57,6.34c-.56.41-1.1.55-1.64.41-.54-.14-.94-.3-1.2-.49l-10.97-7.33-1.71,1.27,7.38,9.98c.28.38.42.8.4,1.24-.02.44-.18.78-.49,1l-8.2,6.06ZM101.61,78.34l3.05-2.26c.64-.47.92-1.1.84-1.88-.08-.78-.38-1.51-.89-2.21-.51-.7-1.14-1.24-1.89-1.64-.74-.39-1.46-.33-2.16.18l-3.05,2.26,4.09,5.54Z"/>
    <path d="M136.73,85.91c-.3.08-.6.01-.89-.2-.29-.21-.48-.51-.58-.89-.04-.17-.07-.32-.07-.45l.63-43.06c-.02-.49.09-1.01.34-1.57.25-.56.71-.92,1.38-1.1l10.91-2.88c.67-.18,1.25-.08,1.74.28.49.36.85.76,1.07,1.2l21.79,37.14c.07.12.12.26.17.43.1.38.08.73-.07,1.06-.15.33-.37.54-.67.61l-9.3,2.46c-.64.17-1.15.11-1.52-.17-.38-.28-.66-.58-.85-.88l-2.3-3.83-10.81,2.85-.11,4.47c-.01.36-.11.76-.28,1.18-.17.43-.6.73-1.27.91l-9.3,2.46ZM147.02,63.96l5.68-1.5-5.95-10.93.27,12.43Z"/>
    <path d="M178.04,76.87c-.38-.04-.69-.25-.93-.62-.24-.37-.33-.8-.28-1.27l4.42-41.76c.05-.47.23-.87.54-1.18.31-.32.66-.45,1.04-.41l15.67,1.66c3.14.33,5.81,1.19,8.02,2.58,2.21,1.39,3.83,3.33,4.88,5.81,1.04,2.49,1.38,5.52,1,9.09-.38,3.58-1.33,6.43-2.87,8.55-1.53,2.12-3.52,3.59-5.96,4.4-2.44.81-5.23,1.05-8.36.71l-3.62-.38-1.31,12.35c-.05.47-.23.87-.54,1.18-.31.32-.66.45-1.04.41l-10.65-1.13ZM192.59,52.07l3.62.38c.55.06,1.11-.15,1.69-.64.57-.48.93-1.35,1.06-2.6.09-.82,0-1.66-.23-2.51-.24-.85-.83-1.33-1.76-1.43l-3.62-.38-.76,7.17Z"/>
    <path d="M209.03,80.36c-.35-.16-.58-.44-.7-.85-.12-.41-.07-.85.14-1.33l17.27-38.27c.2-.43.49-.75.89-.96.4-.2.77-.22,1.11-.07l9.29,4.19c.35.16.58.45.69.88.11.43.07.86-.13,1.3l-5.61,12.44,7.68,3.46,5.61-12.44c.2-.43.49-.75.89-.95.39-.2.77-.22,1.11-.07l9.29,4.19c.35.16.58.45.69.88.11.43.07.86-.13,1.3l-17.27,38.27c-.2.44-.49.75-.89.96-.4.2-.77.22-1.11.07l-9.29-4.19c-.35-.16-.58-.45-.69-.88-.11-.43-.07-.86.13-1.3l5.77-12.8-7.68-3.46-5.77,12.8c-.2.44-.49.75-.89.96s-.77.22-1.11.07l-9.29-4.19Z"/>
    <path d="M244.03,99.05c-.29-.25-.43-.59-.41-1.04.01-.44.18-.85.49-1.21l27.28-31.92c.31-.36.68-.58,1.12-.67.44-.08.8,0,1.09.25l8.06,6.89c.29.25.43.59.41,1.04-.01.44-.18.85-.49,1.21l-27.28,31.92c-.31.36-.68.59-1.12.67-.44.08-.8,0-1.09-.25l-8.07-6.89Z"/>
    <path d="M266.77,124.67c-1.84-2.77-2.96-5.57-3.37-8.38-.41-2.81.06-5.56,1.39-8.25,1.33-2.69,3.68-5.23,7.03-7.62,1.46-1.01,3.04-2.08,4.74-3.2,1.7-1.12,3.33-2.19,4.91-3.19,3.44-2.11,6.66-3.24,9.68-3.39s5.77.5,8.24,1.96c2.47,1.46,4.6,3.53,6.38,6.22,1.23,1.85,2.15,3.81,2.76,5.87.61,2.07.82,4.17.62,6.29-.2,2.13-.9,4.19-2.11,6.17-1.21,1.99-3.03,3.8-5.47,5.46-.33.22-.67.31-1.03.28-.36-.03-.62-.18-.8-.44l-5.86-8.84c-.31-.46-.41-.88-.32-1.25.09-.37.37-.84.83-1.39.95-1.08,1.43-2.03,1.47-2.84.03-.81-.2-1.59-.7-2.35-.63-.95-1.45-1.5-2.46-1.65-1.01-.14-2.36.3-4.06,1.35-3.02,1.88-6.05,3.89-9.1,6.03-1.62,1.16-2.57,2.23-2.82,3.21-.26.98-.07,1.95.56,2.9.5.75,1.15,1.26,1.96,1.54s1.85.2,3.12-.23c.71-.26,1.25-.35,1.62-.26.37.09.71.36,1.01.83l5.86,8.84c.17.26.2.56.09.91-.11.34-.33.62-.65.84-2.48,1.6-4.86,2.57-7.16,2.9-2.3.34-4.47.18-6.5-.46-2.04-.65-3.89-1.65-5.55-3.03-1.66-1.37-3.11-2.98-4.33-4.83Z"/>
  </g>
  <g>
    <path d="M65.86,277.14c-.27-.27-.39-.62-.34-1.06.04-.44.23-.83.57-1.17l29.39-29.99c.33-.34.72-.54,1.16-.59.44-.05.8.05,1.07.32l10.7,10.48c2.33,2.28,3.93,4.8,4.81,7.58.88,2.77.94,5.64.19,8.61-.75,2.97-2.45,5.88-5.1,8.74-1.25,1.38-2.38,2.57-3.36,3.58-.99,1.01-2.12,2.12-3.42,3.34-2.95,2.81-5.88,4.66-8.78,5.54-2.91.88-5.7.9-8.39.06-2.69-.85-5.22-2.43-7.6-4.76l-10.88-10.66ZM83.02,276.2l2.41,2.37c.54.53,1.16.88,1.85,1.04.69.16,1.45.1,2.26-.19s1.66-.86,2.54-1.7c.93-.85,1.75-1.62,2.46-2.32.71-.7,1.42-1.42,2.12-2.16.7-.74,1.43-1.55,2.2-2.44,1.22-1.35,1.82-2.61,1.79-3.8-.03-1.18-.47-2.19-1.31-3.01l-2.23-2.18-14.1,14.39Z"/>
    <path d="M105.52,310.44c-.35-.16-.57-.46-.67-.89-.1-.43-.05-.86.15-1.29l17.92-37.98c.2-.43.5-.74.9-.94s.77-.21,1.12-.05l24.13,11.38c.34.16.57.46.67.89s.05.86-.15,1.29l-3.91,8.29c-.2.43-.5.74-.9.94-.4.2-.77.21-1.12.05l-14.11-6.66-1.75,3.7,13.07,6.17c.34.16.57.46.67.89.1.43.05.86-.15,1.29l-3.61,7.64c-.2.43-.5.74-.9.94-.4.2-.77.21-1.11.05l-13.08-6.17-1.75,3.7,14.49,6.83c.34.16.57.46.67.89.1.43.05.86-.15,1.29l-3.91,8.29c-.2.43-.5.74-.9.94s-.77.21-1.12.05l-24.5-11.56Z"/>
    <path d="M163.78,329.9c-3.82-.44-6.9-1.44-9.23-3.02-2.33-1.58-4-3.49-5-5.74s-1.4-4.56-1.2-6.94c.04-.39.19-.71.45-.96.25-.25.54-.36.85-.33l9.82,1.12c.55.06.96.21,1.23.44.27.23.56.53.86.92.31.34.63.65.97.93.33.28.73.5,1.18.66.45.16.96.27,1.51.33,1.17.13,2.13.08,2.87-.16s1.15-.64,1.21-1.2c.06-.52-.09-.97-.45-1.36-.36-.39-1-.78-1.93-1.17-.93-.39-2.25-.81-3.94-1.27-2.67-.78-4.94-1.85-6.8-3.2-1.87-1.35-3.24-3.06-4.1-5.15-.86-2.08-1.13-4.54-.81-7.39.33-2.93,1.29-5.43,2.87-7.52,1.58-2.09,3.62-3.62,6.13-4.6,2.5-.98,5.32-1.29,8.45-.93,2.58.3,4.83.98,6.73,2.04s3.46,2.36,4.69,3.87c1.22,1.51,2.11,3.09,2.65,4.72.55,1.63.75,3.16.63,4.59-.04.39-.2.71-.45.96-.26.25-.52.37-.8.33l-10.33-1.18c-.48-.05-.86-.18-1.13-.39-.27-.21-.54-.5-.81-.88-.15-.23-.44-.52-.87-.85-.43-.33-1.01-.54-1.73-.62-.86-.1-1.51,0-1.94.27-.43.28-.68.7-.75,1.26-.04.39.07.77.34,1.15.27.38.8.75,1.6,1.1s1.96.75,3.48,1.18c3.38.91,6.05,2.05,8.01,3.43,1.95,1.38,3.29,3.07,4.03,5.07.73,2,.94,4.4.62,7.2-.36,3.14-1.42,5.77-3.18,7.88-1.76,2.11-4,3.63-6.72,4.56-2.72.93-5.72,1.21-8.99.84Z"/>
    <path d="M197.48,329.44c-.38.05-.73-.07-1.05-.37-.33-.3-.52-.69-.59-1.16l-6.06-41.55c-.07-.47,0-.9.23-1.28.22-.38.53-.6.9-.66l10.5-1.53c.38-.06.73.07,1.05.37.32.3.52.69.59,1.16l6.06,41.55c.07.47,0,.9-.23,1.28-.22.38-.53.6-.9.66l-10.5,1.53Z"/>
    <path d="M241.98,317.97c-3.2,1.43-6.23,2.07-9.1,1.93-2.87-.14-5.51-1.12-7.92-2.94-2.41-1.82-4.5-4.54-6.27-8.16-.76-1.61-1.56-3.36-2.41-5.26s-1.64-3.71-2.37-5.42c-1.45-3.58-2.02-6.82-1.7-9.74.31-2.92,1.39-5.49,3.24-7.71,1.85-2.23,4.33-4.04,7.43-5.42,2.5-1.12,4.9-1.77,7.21-1.97,2.3-.2,4.44,0,6.41.59,1.97.59,3.7,1.52,5.17,2.78,1.48,1.26,2.63,2.78,3.45,4.54.16.36.19.71.1,1.06-.09.35-.28.59-.56.71l-10.49,4.69c-.35.16-.65.22-.91.19-.26-.03-.51-.1-.76-.23-.21-.14-.52-.35-.93-.62-.4-.27-.9-.45-1.47-.55-.58-.1-1.26.03-2.05.38-1.17.52-1.89,1.29-2.17,2.29-.27,1-.11,2.27.5,3.8,1.37,3.33,2.88,6.69,4.51,10.09.86,1.75,1.8,2.88,2.82,3.37,1.02.5,2.11.48,3.28-.04.79-.35,1.43-.8,1.9-1.35.48-.54.75-1.21.81-2s-.12-1.68-.56-2.67l-.03-.06-2.23,1c-.35.16-.72.13-1.11-.07-.4-.2-.69-.52-.88-.96l-2.94-6.59c-.19-.43-.24-.87-.12-1.3s.34-.72.69-.88l13.05-5.83c.35-.16.72-.13,1.11.07.4.21.69.52.88.96l3.45,7.71c1.59,3.56,2.23,6.86,1.92,9.89-.31,3.04-1.42,5.72-3.31,8.07-1.9,2.34-4.44,4.23-7.64,5.66Z"/>
    <path d="M274.46,298.33c-.27.27-.63.37-1.07.32-.44-.05-.83-.25-1.16-.59l-29.29-30.08c-.33-.34-.52-.73-.56-1.17-.04-.44.07-.8.35-1.06l5.89-5.73c.5-.48.99-.7,1.49-.63.5.06.86.13,1.08.22l18.86,6.77-12.38-12.71c-.33-.34-.52-.73-.56-1.17-.04-.44.07-.8.35-1.06l6.74-6.57c.27-.27.63-.37,1.07-.32.44.06.83.25,1.16.59l29.29,30.08c.33.34.52.73.56,1.18.04.44-.07.8-.35,1.06l-5.89,5.73c-.5.48-1,.69-1.51.61-.51-.08-.86-.14-1.06-.19l-17.86-5.74,11.38,11.69c.33.34.52.73.56,1.17.04.44-.07.8-.35,1.06l-6.74,6.57Z"/>
  </g>
  <path class="cls-3" d="M101.37,160.07c2.35,10.52-4.54,20.42-8.78,23.6-.65.49-1.28.88-2.1.8-8.94-.89-17.22-4.31-22.06-10.74-7.54-10.01,3.35-23.01,13.64-14.47,1.98-13.22,16.77-10.5,19.31.81Z"/>
  <path class="cls-3" d="M88.4,206.96c3.44,14.63-5.2,28.08-10.62,32.32-.83.65-1.64,1.17-2.72,1.03-11.7-1.54-22.61-6.56-29.15-15.63-10.18-14.1,3.56-31.7,17.28-19.53,2.12-18.22,21.51-13.93,25.21,1.8Z"/>
  <path class="cls-3" d="M318.5,225.96c-11.51,9.66-27.41,8.01-33.64,5.09-.96-.45-1.79-.93-2.15-1.96-3.89-11.14-4.33-23.14.81-33.07,8-15.44,29.9-11.11,25.22,6.62,17.21-6.32,22.13,12.92,9.75,23.31Z"/>
  <path class="cls-3" d="M293.04,172.73c-7.18,6.02-17.09,5-20.98,3.18-.6-.28-1.11-.58-1.34-1.22-2.43-6.94-2.7-14.43.5-20.62,4.99-9.63,18.64-6.93,15.73,4.13,10.73-3.94,13.8,8.06,6.08,14.54Z"/>
</svg>