<?xml version="1.0" encoding="UTF-8"?>
<svg id="Layer_2" data-name="Layer 2" xmlns="http://www.w3.org/2000/svg" xmlns:xlink="http://www.w3.org/1999/xlink" viewBox="0 0 362.04 362.04">
  <defs>
    <style>
      .cls-1 {
        fill: none;
      }

      .cls-2 {
        fill: #ffa9c6;
      }

      .cls-3 {
        stroke: #000;
        stroke-linecap: round;
        stroke-linejoin: round;
        stroke-width: 3px;
      }

      .cls-3, .cls-4 {
        fill: #fff;
      }

      .cls-5 {
        fill: #ff75a4;
      }

      .cls-6 {
        font-family: Rubik-Black, Rubik;
        font-size: 52px;
        font-variation-settings: 'wght' 900;
        font-weight: 800;
      }

      .cls-7 {
        clip-path: url(#clippath);
      }
    </style>
    <clipPath id="clippath">
      <circle class="cls-1" cx="181.02" cy="181.02" r="157.02"/>
    </clipPath>
  </defs>
  <g>
    <path class="cls-2" d="M181.02,350.04c-93.2,0-169.02-75.82-169.02-169.02S87.82,12,181.02,12s169.02,75.82,169.02,169.02-75.82,169.02-169.02,169.02Z"/>
    <path class="cls-4" d="M181.02,24c86.72,0,157.02,70.3,157.02,157.02s-70.3,157.02-157.02,157.02S24,267.74,24,181.02,94.3,24,181.02,24M181.02,0c-24.43,0-48.14,4.79-70.47,14.24-21.56,9.12-40.92,22.17-57.53,38.78-16.62,16.62-29.67,35.97-38.78,57.53C4.79,132.89,0,156.59,0,181.02s4.79,48.14,14.24,70.47c9.12,21.56,22.17,40.92,38.78,57.53,16.62,16.62,35.97,29.67,57.53,38.78,22.33,9.45,46.04,14.24,70.47,14.24s48.14-4.79,70.47-14.24c21.56-9.12,40.92-22.17,57.53-38.78,16.62-16.62,29.67-35.97,38.78-57.53,9.45-22.33,14.24-46.04,14.24-70.47s-4.79-48.14-14.24-70.47c-9.12-21.56-22.17-40.92-38.78-57.53-16.62-16.62-35.97-29.67-57.53-38.78C229.16,4.79,205.45,0,181.02,0h0Z"/>
    <path d="M181.02,24c86.72,0,157.02,70.3,157.02,157.02s-70.3,157.02-157.02,157.02S24,267.74,24,181.02,94.3,24,181.02,24M181.02,20c-43.01,0-83.45,16.75-113.86,47.16-30.41,30.41-47.16,70.85-47.16,113.86s16.75,83.45,47.16,113.86c30.41,30.41,70.85,47.16,113.86,47.16s83.45-16.75,113.86-47.16c30.41-30.41,47.16-70.85,47.16-113.86s-16.75-83.45-47.16-113.86c-30.41-30.41-70.85-47.16-113.86-47.16h0Z"/>
  </g>
  <g class="cls-7">
    <polygon class="cls-5" points="181.02 181.02 188.86 347.34 247.61 333.63 181.02 181.02"/>
    <polygon class="cls-5" points="181.02 181.02 304.17 293.09 336.02 241.84 181.02 181.02"/>
    <polygon class="cls-5" points="181.02 181.02 347.34 173.19 333.63 114.43 181.02 181.02"/>
    <polygon class="cls-5" points="181.02 181.02 293.09 57.87 241.84 26.02 181.02 181.02"/>
    <polygon class="cls-5" points="181.02 181.02 173.19 14.7 114.43 28.41 181.02 181.02"/>
    <polygon class="cls-5" points="181.02 181.02 57.87 68.96 26.02 120.2 181.02 181.02"/>
    <polygon class="cls-5" points="181.02 181.02 14.7 188.86 28.41 247.61 181.02 181.02"/>
    <polygon class="cls-5" points="181.02 181.02 68.96 304.17 120.2 336.02 181.02 181.02"/>
  </g>
  <g>
    <path d="M247.02,191.65s-.04.07-.07.1l-13.53,24.42c-2.25,5.94-7.59,10.5-14.3,11.45l-27.53,3.9-8.15,14.91c-.37,1.07-1.31,1.85-2.43,2.01-1.13.16-2.24-.33-2.89-1.26l-8.65-12.53-30.84,4.37c-9.82,1.39-18.94-5.47-20.33-15.29l-5.64-39.82c-.65-4.57.49-8.99,2.89-12.55l13.86-25.47.43-.8s.04-.07.06-.1c2.68-4.59,7.36-7.96,13.01-8.76l80.49-11.4c9.82-1.39,18.95,5.47,20.34,15.29l5.63,39.82c.6,4.22-.32,8.31-2.35,11.71Z"/>
    <path class="cls-4" d="M195.37,216.77c-.53.07-1.05-.15-1.35-.59l-8.58-12.42-30.9,4.38c-7.77,1.1-14.96-4.31-16.06-12.08l-5.61-39.63c-1.1-7.77,4.31-14.96,12.08-16.06l77.67-11c7.77-1.1,14.96,4.31,16.06,12.08l5.61,39.63c1.1,7.77-4.31,14.96-12.08,16.06l-30.91,4.38-4.8,14.32c-.17.5-.61.87-1.13.94Z"/>
    <path class="cls-5" d="M218.43,160.05c0,14.75-14,26.51-21.61,29.81-1.17.51-2.27.89-3.51.59-13.45-3.29-24.99-9.84-30.23-19.65-8.14-15.27,13.06-30.28,25.94-16.36,7.59-17.39,29.4-10.26,29.4,5.61Z"/>
  </g>
  <text class="cls-6" transform="translate(83.5 141.78) rotate(-57.29) scale(1 1.25)"><tspan x="0" y="0">G</tspan></text>
  <text class="cls-6" transform="translate(104.62 109.1) rotate(-36.47) scale(1 1.25)"><tspan x="0" y="0">R</tspan></text>
  <text class="cls-6" transform="translate(135.62 86.2) rotate(-14.79) scale(1 1.25)"><tspan x="0" y="0">A</tspan></text>
  <text class="cls-6" transform="translate(173.8 76.42) rotate(6.05) scale(1 1.25)"><tspan x="0" y="0">P</tspan></text>
  <text class="cls-6" transform="translate(205.14 78.61) rotate(24.29) scale(1 1.25)"><tspan x="0" y="0">H</tspan></text>
  <text class="cls-6" transform="translate(240.79 96.28) rotate(40.51) scale(1 1.25)"><tspan x="0" y="0">I</tspan></text>
  <text class="cls-6" transform="translate(256.63 108.18) rotate(56.47) scale(1 1.25)"><tspan x="0" y="0">C</tspan></text>
  <text class="cls-6" transform="translate(62.83 274.24) rotate(44.42) scale(1 1.25)"><tspan x="0" y="0">D</tspan></text>
  <text class="cls-6" transform="translate(101.67 308.71) rotate(25.26) scale(1 1.25)"><tspan x="0" y="0">E</tspan></text>
  <text class="cls-6" transform="translate(145.93 327.29) rotate(6.51) scale(1 1.25)"><tspan x="0" y="0">S</tspan></text>
  <text class="cls-6" transform="translate(193.27 330.14) rotate(-8.3) scale(1 1.25)"><tspan x="0" y="0">I</tspan></text>
  <text class="cls-6" transform="translate(223.97 325.39) rotate(-24.08) scale(1 1.25)"><tspan x="0" y="0">G</tspan></text>
  <text class="cls-6" transform="translate(271.42 301.39) rotate(-44.24) scale(1 1.25)"><tspan x="0" y="0">N</tspan></text>
  <path class="cls-3" d="M101.37,160.07c2.35,10.52-4.54,20.42-8.78,23.6-.65.49-1.28.88-2.1.8-8.94-.89-17.22-4.31-22.06-10.74-7.54-10.01,3.35-23.01,13.64-14.47,1.98-13.22,16.77-10.5,19.31.81Z"/>
  <path class="cls-3" d="M88.4,206.96c3.44,14.63-5.2,28.08-10.62,32.32-.83.65-1.64,1.17-2.72,1.03-11.7-1.54-22.61-6.56-29.15-15.63-10.18-14.1,3.56-31.7,17.28-19.53,2.12-18.22,21.51-13.93,25.21,1.8Z"/>
  <path class="cls-3" d="M318.5,225.96c-11.51,9.66-27.41,8.01-33.64,5.09-.96-.45-1.79-.93-2.15-1.96-3.89-11.14-4.33-23.14.81-33.07,8-15.44,29.9-11.11,25.22,6.62,17.21-6.32,22.13,12.92,9.75,23.31Z"/>
  <path class="cls-3" d="M293.04,172.73c-7.18,6.02-17.09,5-20.98,3.18-.6-.28-1.11-.58-1.34-1.22-2.43-6.94-2.7-14.43.5-20.62,4.99-9.63,18.64-6.93,15.73,4.13,10.73-3.94,13.8,8.06,6.08,14.54Z"/>
</svg>