<?xml version="1.0" encoding="UTF-8"?>
<svg id="Layer_5" data-name="Layer 5" xmlns="http://www.w3.org/2000/svg" viewBox="0 0 397.41 298.72">
  <defs>
    <style>
      .cls-1 {
        fill: none;
      }

      .cls-2 {
        fill: #009db6;
      }

      .cls-3 {
        fill: #c1f7ff;
      }

      .cls-4 {
        fill: #fff;
      }

      .cls-5 {
        fill: #71e4f7;
      }

      .cls-6 {
        fill: #7dd3e6;
      }
    </style>
  </defs>
  <g>
    <path class="cls-6" d="M198.71,286.72c-49.15,0-95.51-13.84-130.53-38.97-36.22-25.99-56.17-60.94-56.17-98.39s19.95-72.4,56.17-98.39C103.19,25.84,149.55,12,198.71,12s95.51,13.84,130.53,38.97c36.22,25.99,56.17,60.94,56.17,98.39s-19.95,72.4-56.17,98.39c-35.02,25.13-81.38,38.97-130.53,38.97Z"/>
    <path class="cls-4" d="M198.71,24c96.49,0,174.71,56.13,174.71,125.36s-78.22,125.36-174.71,125.36S24,218.6,24,149.36,102.22,24,198.71,24M198.71,0c-51.64,0-100.49,14.64-137.53,41.22-18.77,13.47-33.62,29.34-44.12,47.16C5.74,107.58,0,128.09,0,149.36s5.74,41.79,17.05,60.98c10.51,17.82,25.35,33.69,44.12,47.16,37.04,26.58,85.88,41.22,137.53,41.22s100.49-14.64,137.53-41.22c18.77-13.47,33.62-29.34,44.12-47.16,11.32-19.2,17.05-39.72,17.05-60.98s-5.74-41.79-17.05-60.98c-10.51-17.82-25.35-33.69-44.12-47.16C299.19,14.64,250.35,0,198.71,0h0Z"/>
    <path d="M198.71,24c96.49,0,174.71,56.13,174.71,125.36s-78.22,125.36-174.71,125.36S24,218.6,24,149.36,102.22,24,198.71,24M198.71,20c-47.5,0-92.2,13.31-125.87,37.47-16.5,11.84-29.47,25.66-38.55,41.07-9.48,16.08-14.28,33.18-14.28,50.83s4.81,34.75,14.28,50.83c9.08,15.41,22.06,29.23,38.55,41.07,33.67,24.16,78.37,37.47,125.87,37.47s92.2-13.31,125.87-37.47c16.5-11.84,29.47-25.66,38.55-41.07,9.48-16.08,14.28-33.18,14.28-50.83s-4.81-34.75-14.28-50.83c-9.08-15.41-22.06-29.23-38.55-41.07-33.67-24.16-78.37-37.47-125.87-37.47h0Z"/>
  </g>
  <g>
    <ellipse class="cls-1" cx="198.71" cy="149.36" rx="152.32" ry="109.3"/>
    <circle class="cls-2" cx="340.71" cy="188.97" r="10.29"/>
    <circle class="cls-3" cx="314.32" cy="220.52" r="10.29"/>
    <circle class="cls-2" cx="279.19" cy="242.17" r="10.29"/>
    <circle class="cls-3" cx="239.83" cy="254.63" r="10.29"/>
    <circle class="cls-2" cx="198.71" cy="258.66" r="10.29"/>
    <circle class="cls-3" cx="157.58" cy="254.63" r="10.29"/>
    <circle class="cls-2" cx="118.22" cy="242.17" r="10.29"/>
    <circle class="cls-3" cx="83.09" cy="220.52" r="10.29"/>
    <circle class="cls-2" cx="56.7" cy="188.97" r="10.29"/>
    <circle class="cls-3" cx="46.39" cy="149.36" r="10.29"/>
    <circle class="cls-2" cx="56.7" cy="109.76" r="10.29"/>
    <circle class="cls-3" cx="83.09" cy="78.2" r="10.29"/>
    <circle class="cls-2" cx="118.22" cy="56.55" r="10.29"/>
    <circle class="cls-3" cx="157.58" cy="44.1" r="10.29"/>
    <circle class="cls-2" cx="198.71" cy="40.07" r="10.29"/>
    <circle class="cls-3" cx="239.83" cy="44.1" r="10.29"/>
    <circle class="cls-2" cx="279.19" cy="56.55" r="10.29"/>
    <circle class="cls-3" cx="314.32" cy="78.2" r="10.29"/>
    <circle class="cls-2" cx="340.71" cy="109.76" r="10.29"/>
    <circle class="cls-3" cx="351.02" cy="149.36" r="10.29"/>
  </g>
  <g>
    <ellipse cx="198.71" cy="149.36" rx="132.97" ry="95.42" transform="translate(-2.63 3.56) rotate(-1.02)"/>
    <path class="cls-5" d="M204.02,139.31c11.74-2.93,25.72-5.03,17.93-21.13-2.76-6.1-7.35-11.44-9.89-17.74-1.76-4.18-1.2-9.54,1.91-12.85,1.98-2.36,4.52-4.17,5.69-7.05,2.6-5.9,3.49-14.18-.52-19.51-1.74-1.84-4.41-2.18-6.74-2.71-4.42-.96-8.32-.44-12.74-.23-4.87-.05-9.43.25-14.07.87-3.77.29-8.06.6-10.84,3.57-2.63,3-2.49,7.69-.86,11.1,1.55,3.06,2.8,6.14,4.13,9.35,4.55,11.06,14.48,3.95,16.15,12.71.69,3.67-.82,7.62-2.05,11.05-.96,3.14-2.13,5.98-2.64,9.11-.69,4.97-.93,10.71-.35,15.66,1.2,7.58,8.38,9.7,14.81,7.84l.1-.02Z"/>
    <path class="cls-3" d="M244.08,79.02c2.7-2.88.78-6.53-1.48-8.91-2.21-2.49-4.85-4.88-7.51-6.89-2.57-2.11-5.37-3.31-7.71-.19-2.39,2.93-1.68,9.19-2.4,13.25-.82,4.42-1.66,8.72,3.86,9.07,3.77.28,7.38-1.12,10.57-3.05,1.56-1.02,3.35-1.8,4.6-3.21l.07-.07Z"/>
    <path class="cls-3" d="M108.17,150.13c4.2-1.4,6.39-6.37,6.89-10.6.41-3.32-.49-7.41,1.33-10.52,3.24-3.99,5.36,1.39,4.09,4.82-.9,4.94-3.51,9.86-2.99,14.97,1.15,5.87,8.68,6.64,13.19,4.53,6.43-3.82,4.46-12.79,4.36-19.16.18-14.91-1.82-30.46-8.69-43.71-6.63-12.62-19.75-7.65-21.59,5.35-1.81,14.23-3.86,6.39-12.64,7.08-3.52.84-5.89,4.66-7.85,7.4-4.95,6.61-6.24,15.8-4.3,23.84.78,3.78,1.99,7.72,5.16,9.94,3.87,2.97,9.36.99,9.54-4.29.14-1.93,1.66-5.28,3.84-4.11,2.73,3.19-2.61,8.42.6,11.91,1.86,2.63,6.04,3.45,8.98,2.58l.09-.03Z"/>
    <path class="cls-5" d="M310.13,146.62c8.69,4.64,11.81-12.69,11.45-18.75-.16-4.01-1.27-9.01-4.4-11.19-2.35-1.23-3.3,1.7-3.26,4.03.02,2.4.21,6.51-2.84,4.12-2.85-3-1.55-8.33-1.1-12.23.34-2.71.28-5.85-.47-8.36-.72-2.39-2.28-4.32-3.76-6.28-2.12-2.65-4.55-5.18-7.11-7.09-2.57-2.07-6.78-4.01-7.61.96-.77,3.66-.57,8.31-1.1,11.79-.64,5.37-1.43,10.64-3.02,15.69-.75,4.09-4.88,9.15-2.93,12.52,1.96,3.14,7.59,4.71,10.39,1.95,2.75-2.66,1.44-7.16,1.5-10.5.14-2.53,1.9-2.68,3.21-.69,1.93,3.52,1.24,8.35,2.24,12.15,1.12,4.96,4.41,9.47,8.72,11.83l.08.04Z"/>
    <path class="cls-3" d="M229.88,126.63c2.23,6.4,10.46,4.92,13.09-.33,1.13-2.16,1.31-6.45,1.35-9.52.12-3.15-.45-5.89-.69-8.92-.2-2.83.09-6.41.03-9.49.2-5.79-3.02-8.53-8.51-8.01-3.33.52-8.84,1.54-10.38,4.78-1.31,3.62-.89,8.69-.32,12.27.81,4.33,2.04,8.54,3.45,12.71.71,2.11,1.1,4.33,1.94,6.44l.04.09Z"/>
    <path class="cls-5" d="M237.9,184.58c4.53-1.62,3.95-8.08,3.94-12.05.02-1.98-.1-3.78-.2-5.75-.21-4.17.47-8.48,1.48-12.47.96-5.22,3.4-13.16-.28-17.67-2.17-2.45-6.03-3.08-9-1.71-3.16,1.42-5.48,4.52-5.78,8.06-.41,4.38,1.05,8.56.78,12.99.09,6.26-1.02,13.8.16,19.82.84,4.33,3.57,10.71,8.83,8.82l.08-.03Z"/>
    <path class="cls-3" d="M266.47,184.62c-3.11,6.74,1.88,9.74,3.3,15.33.31,1.93-1.18,3.99-2.79,3.86-3.77-.77-3.98-5.98-5.16-9.08-1.32-4.57-2.8-8.8-2.68-13.62.41-5.84-1.12-24.22,6.28-24.82,4.2,1.53-1.54,9.99-1.46,13.52-1.27,7.44,6.64,9.27,9.38,2.69,1.66-3.56,2.1-7.55,3.21-11.33,1.92-5.24,2.8-11.17.52-16.48-3.78-10.02-18.46-10.02-24.93-2.88-9.43,10.89-8.18,27.12-6.54,40.76,1.39,9.8,4.82,19.02,7.28,28.51,4.5,16.19,21.3,15.67,27.43.96,2.18-5.21.9-11.09-.17-16.46-.73-3.54-1.21-7.12-2.72-10.3-1.8-4.7-8.74-5.61-10.88-.75l-.04.08Z"/>
    <path class="cls-2" d="M303.99,195.85c2.56-2.71,5.23-5.91,7.47-9.07,3.55-4.54,5.01-8.61-.02-12.61-2.69-2.06-5.24-4.25-8.26-5.65-2.19-1.01-5.07-1.16-7.28-2.32-4.21-2.09-1.65-7.16,2.35-6.65,3.68.47,5.63,4.25,8.99,5.48,2.22.82,5.07.98,6.9-.75,3.08-3.45-1.2-8.92-3.83-11.38-1.07-1.06-2.3-1.92-3.55-2.79-2.12-1.62-4.23-3.37-6.51-4.76-4.11-2.74-10-1.76-13.48,1.71-2.44,2.11-3.46,4.91-4.63,7.83-1.1,2.86-2.18,5.66-2.93,8.6-.94,5.03-1.51,12.49,3.62,15.05,6.82,4.31,13.53-4.85,19.39-.74,2.71,2.02,3.11,7.52-.98,7.92-3.23.08-6.37-2.16-9.67-.91-4.13,1.15-7.55,5.03-7.89,9.52-.35,4.58,1.72,10.69,6.74,11.16,5.48.07,9.94-5.94,13.53-9.58l.06-.07Z"/>
    <path class="cls-2" d="M100.34,187.57c2.41.28,5.98,2.02,4.81,5.01-.91,2.35-4.07,2.65-6.19,1.79-3.82-1.5-8.55-6.27-9.29-10.33-.86-4.96,2.77-12.03,6.18-15.43,5.25-4.9,11.41-3.06,13.24,3.81,1.77,6.38,9.81,7.21,12.26.79,2.51-5.35-.16-10.6-4.5-13.9-4.57-3.56-10.17-5.21-15.68-6.61-4.1-.86-8.24.52-12.14,1.56-4.94,1.44-8.91,5.56-9.55,10.7-.66,4.53-1.21,8.55-.58,13.03,1.14,8.38,7.32,15.02,13.28,20.79,3.77,4.33,8.33,7.38,14.32,5.93,5.26-1.62,7.47-7.35,7.16-12.44-.12-8.14-8.03-15.96-16.34-13.88-.77.19-1.54.46-2.13.98-.42.37-.72.86-1,1.35-.57.98-1.11,2.04-1.1,3.17.01,1.21.7,2.38,1.75,2.99,1.55.9,3.49.52,5.28.66.07,0,.15.01.22.02Z"/>
    <path class="cls-5" d="M228.63,235.7c5.24-3.52,1.89-9.07.96-13.84-.83-3.97,2.96-6.64,4.36-1.88.9,2.88.41,7.59,1.93,10.23,2.3,4.05,8.31,3.56,11.9,2.17,5.53-2.16,6.34-9.79,3.76-14.57-3.21-5.5-5.15-11.64-7.07-17.72-1.32-3.93-2.64-8.77-6.17-11.07-3.97-2.69-10.24-3.56-10.91,2.79-.35,2.95,1.01,5.91,1.17,8.84.35,5.52-3.62,5.68-4.54.23-.5-3.24-.01-6.91-1.73-9.83-2.28-3.72-7.73-3.23-10.74-.73-3.09,2.77-3.07,7.76-2.92,11.71.96,7.76,2.08,15.52,4.19,23.06.87,3.57,1.42,7.63,4.14,10.23,3.14,2.97,8.12,2.58,11.59.44l.08-.05Z"/>
    <path class="cls-2" d="M180.05,103.98c-1.27-5.7-2.58-11.45-4.38-17.01-1.26-4.02-3.39-7.2-5.53-10.71-1.91-3.58-4.59-7.31-8.42-8.77-5.1-2-11.65-1.25-16.5,1.34-6.18,3.44-14.32,9.32-14.97,17.15-.21,3.14,1.36,6.04,2.53,8.88.86,2.26,1.57,4.59,2.27,6.89,2.35,7.95,3.28,16.41,3.84,24.74.58,4.54.13,9.38,1.04,14.02,1.04,4.61,5.07,9.33,9.42,10.65,4.04,1.14,8.39-.56,12.4-1.23l.09-.02c7.46-1.27,15.65-3.21,18.17-11.72,1.7-4.9,2.12-10.05,2.12-15.19.17-6.38-.48-12.83-2.07-19.03ZM166.95,127.63l-.03.09c-1.96,5.71-10.16,7.14-13.37,1.8-3.21-4.82-.99-12.37-2.13-17.85-1.21-5.84-5.28-11.31-3.65-17.57.37-1.81,1.13-3.61,2.65-4.57,1.41-.96,3.35-.99,4.5.26,2.02,2.51,1.29,6.76,2.07,9.76.93,3.57,2.88,6.79,4.31,10.14,1.94,4.2,5.14,8.12,5.72,12.9.26,1.68.4,3.51-.07,5.06Z"/>
    <path class="cls-3" d="M188.52,202.28c-1.69-11.58-2.47-23.85-4.72-35.33-1.32-4.26-1.81-10.15-6.08-12.58-5.68-2.14-10.45,3.43-11.72,8.47-1.97,4.76-2.86,10.11-5.4,14.66-5.08,11.06-11.72,21.75-13.68,33.9-.45,5.58-4.34,11.95-1.3,17.23,3.75,4.62,11.54,6.53,17.05,4.2l.08-.04c5.5-2.36,5.13-9.72,4.02-14.57-.52-2.18-1.8-4.87-1.09-7.02,3.23-4.8,11.46-.79,7.78,6.16-2.29,4.31-3.81,14.9,1.07,17.89,5.05,2.93,12.12.9,13.33-5.17.8-2.53.66-8.16.82-11.72.11-5.4.56-10.92-.17-16.08ZM171.6,197.05c-2.51.63-3.98-1.39-4.23-3.91-.46-3.48.64-6.75,1.6-10,.47-1.48,1.14-3.52,2.47-4.18,2.88-.9,2.32,5.36,2.43,7.34.04,1.86.19,3.56.28,5v.11c.25,2.18-.3,5.03-2.56,5.63Z"/>
    <path class="cls-5" d="M153.01,157.7c-3.83-1.52-8.48-.85-12.37.06-2.95.75-6.11,1.42-8.49,3.41-3.95,3.14-5.57,8.41-7.74,12.75-2.82,5.98-5.09,12.16-7.28,18.37-1.06,3.21-1.81,6.5-3.32,9.55-1.5,3.31-4.6,6.27-4.72,10.08-.14,4.38,5.34,6.48,8.82,4.36,1.85-1.09,3.44-2.67,4.62-4.45.7-1.1,1.3-2.23,1.78-3.44.87-1.7,1.18-7.04,3.6-6.88l.04.02c1.7.94,1.64,5.07.62,7.11-1.52,3.86-5.06,7.06-5.26,11.38.13,6.36,9.44,7.2,14.02,4.72,5.62-3.08,6.19-10.72,6.49-16.93.09-3.3.23-6.08-.07-9.15-.19-2.29-1.02-4.72-.24-6.88.84-2.47,3.31-3.49,5.43-4.93,1.87-1.26,3.78-2.73,5.41-4.33,2.61-2.45,4.05-5.83,4.7-9.2,1.41-5.93.3-13.14-6.03-15.62ZM141.78,177.97l-.1.06c-5.66,3.24-6.81-2.76-3.56-6.46,1.78-2.54,6.25-4.2,7.99-.94,1.26,2.9-2.21,5.85-4.33,7.34Z"/>
    <path class="cls-2" d="M225.5,165.6c-.43-5.54-2.42-10.45-4.14-15.53-3.35-8.24-11.48-5.17-17.83-3.03-5.33,1.71-11.08,4.9-13.21,10.54-3.63,10.88-.6,22.1-.42,33.25.13,5.1,1.79,9.58,2.04,14.74.32,8.31,1.99,15.78,1.56,24.1.18,3.89-.5,7.79,3.68,8.83,2.65.56,8.03,1.29,9.66-1.51,2.01-4.55.9-11.86-.09-16.93l-.02-.1c-.85-6.25-2.26-12.47-3.23-18.68-.46-3.15-1.55-6.39-1.07-9.62,1.14-6.08,7.61-9.19,13.16-8.41,2.01.11,3.93.19,5.38-.65,2.53-1.63,3.92-4.93,4.66-7.8.73-3.01.21-6.15-.13-9.19ZM209.48,171.83l-.08.07c-2.85,2.57-5.99,2.76-7.4-1.41-.65-2.26-1.49-4.71-1.06-7.13.59-4.56,5.06-6.02,8.65-3.9,4.5,2.48,3.48,9.44-.11,12.37Z"/>
    <path class="cls-2" d="M285.11,89.67c-1-4.21-2.82-8.35-6.26-11.01-8.38-6.68-19-12.12-24.98.65-1.13,1.94-1.74,4.08-2.43,6.16-.94,2.82-.85,5.65-.96,8.62-.12,3.22-.25,6.44-.38,9.66-.19,4.86-.9,10.52.76,15.13.95,2.63,2.5,4.23,4.67,5.78,2.31,1.65,4.46,2.95,7.23,3.69,4.6,1.73,9.6,1.93,13.9-.7l.08-.05c3.04-1.72,4.73-5.14,6.22-8.15,1.86-4.78,2.94-10.01,3.55-15.2.52-4.87-.3-9.85-1.41-14.58ZM275,111.11l-.05.08c-1.9,2.58-4.7,5.85-8.06,5.73-2.36-.16-3.9-2.36-4.03-4.71-.17-3.35.98-6.77.73-10.16-.12-3.06-.98-6.13-.93-9.21-.04-2.73.82-5.84,2.99-7.32,2.67-2.29,7.02-.79,7.87,2.67.76,2.48-.59,5.22-.35,7.83.46,5.06,5.57,10.16,1.83,15.09Z"/>
  </g>
</svg>