<?xml version="1.0" encoding="UTF-8"?>
<svg id="Layer_7" data-name="Layer 7" xmlns="http://www.w3.org/2000/svg" xmlns:xlink="http://www.w3.org/1999/xlink" viewBox="0 0 368.55 333.33">
  <defs>
    <style>
      .cls-1, .cls-2 {
        fill: none;
      }

      .cls-3 {
        fill: #a766f3;
      }

      .cls-4, .cls-5 {
        fill: #fff;
      }

      .cls-4, .cls-2 {
        font-family: Versa-Versa, Versa;
        font-size: 142.98px;
      }

      .cls-6 {
        fill: #cea1ff;
      }

      .cls-7 {
        clip-path: url(#clippath);
      }

      .cls-2 {
        stroke: #000;
        stroke-miterlimit: 10;
        stroke-width: 4px;
      }
    </style>
    <clipPath id="clippath">
      <polygon class="cls-1" points="112.76 135.97 64.08 220.82 304.46 220.82 255.79 135.97 112.76 135.97"/>
    </clipPath>
  </defs>
  <g>
    <path class="cls-6" d="M53.46,321.33c-14.96,0-28.36-7.73-35.84-20.69-7.48-12.96-7.48-28.42,0-41.38L148.44,32.69c7.48-12.96,20.88-20.69,35.84-20.69s28.36,7.73,35.83,20.69l130.81,226.57c7.48,12.95,7.48,28.42,0,41.38-7.48,12.96-20.88,20.69-35.84,20.69H53.46Z"/>
    <path class="cls-5" d="M184.27,24c9.89,0,19.79,4.9,25.44,14.69l130.81,226.57c11.31,19.59-2.83,44.07-25.44,44.07H53.46c-22.62,0-36.75-24.48-25.44-44.07L158.83,38.69c5.65-9.79,15.55-14.69,25.44-14.69M184.27,0c-19.3,0-36.58,9.98-46.23,26.69L7.24,253.26c-9.65,16.71-9.65,36.67,0,53.38,9.65,16.71,26.93,26.69,46.23,26.69h261.62c19.3,0,36.58-9.98,46.23-26.69,9.65-16.71,9.65-36.67,0-53.38L230.5,26.69C220.85,9.98,203.57,0,184.27,0h0Z"/>
    <path d="M184.27,24c9.89,0,19.79,4.9,25.44,14.69l130.81,226.57c11.31,19.59-2.83,44.07-25.44,44.07H53.46c-22.62,0-36.75-24.48-25.44-44.07L158.83,38.69c5.65-9.79,15.55-14.69,25.44-14.69M184.27,20c-12.07,0-22.87,6.24-28.91,16.69L24.56,263.26c-6.03,10.45-6.03,22.93,0,33.38,6.03,10.45,16.84,16.69,28.91,16.69h261.62c12.07,0,22.87-6.24,28.91-16.69,6.03-10.45,6.03-22.93,0-33.38L213.18,36.69c-6.03-10.45-16.84-16.69-28.91-16.69h0Z"/>
  </g>
  <path class="cls-3" d="M332.89,268.99l-28.43-48.16H64.08l-28.43,48.16c-8.06,13.95,2.01,31.39,18.12,31.39h260.98c16.11,0,26.18-17.44,18.12-31.39Z"/>
  <g class="cls-7">
    <g>
      <polygon class="cls-3" points="73.65 220.46 64.28 208.75 105.21 175.97 128.07 190.87 163.94 165.96 185.25 177.43 224.32 154.8 238.88 166.6 262.92 150.05 271.43 162.41 238.14 185.31 222.9 172.96 185.52 194.61 164.94 183.53 128.34 208.95 106.12 194.46 73.65 220.46"/>
      <polygon class="cls-3" points="73.65 186.16 64.28 174.46 105.21 141.68 128.07 156.58 163.94 131.67 185.25 143.14 224.32 120.51 238.88 132.31 262.92 115.76 271.43 128.12 238.14 151.02 222.9 138.67 185.52 160.32 164.94 149.24 128.34 174.66 106.12 160.17 73.65 186.16"/>
      <polygon class="cls-3" points="72 255.86 62.63 244.15 103.56 211.38 126.43 226.28 162.29 201.37 183.6 212.84 222.67 190.21 237.23 202.01 277.74 174.13 286.24 186.49 236.49 220.72 221.25 208.37 183.87 230.02 163.29 218.94 126.69 244.35 104.47 229.87 72 255.86"/>
      <rect class="cls-3" x="257.15" y="209.1" width="45.13" height="15" transform="translate(-73.5 196.7) rotate(-34.53)"/>
    </g>
  </g>
  <path class="cls-3" d="M163.99,43.43l-51.23,92.54h143.02l-51.23-92.54c-8.82-15.94-31.74-15.94-40.57,0Z"/>
  <g>
    <path d="M170.48,73.4h12.52c-.42,19.22-.84,38.44-1.25,57.66-18.76,0-37.52,0-56.28,0,9.73-19.22,19.45-38.44,29.18-57.66h12.52c-4.27,14.61-8.54,29.22-12.81,43.82h5.8c3.44-14.61,6.88-29.22,10.32-43.82Z"/>
    <path d="M230.05,105.31c4.34,8.59,8.69,17.17,13.03,25.76h-24.85c-2.65-9.07-3.98-13.61-6.63-22.68h-5.4c2.13,9.07,3.19,13.61,5.32,22.68-9.94,0-14.91,0-24.85,0-.21-10.3-.32-15.45-.53-25.76,2.99-1.23,4.44-1.85,7.22-3.08-3.04-1.23-4.51-1.85-7.35-3.08-.21-10.3-.32-15.45-.53-25.76h12.52c2.13,9.07,3.19,13.61,5.32,22.68h4.69c-2.65-9.07-3.98-13.61-6.63-22.68,5.01,0,7.51,0,12.52,0,4.35,8.59,8.69,17.17,13.03,25.76-2.23,1.23-3.39,1.85-5.82,3.08,3.47,1.23,5.26,1.85,8.94,3.08Z"/>
  </g>
  <g>
    <path d="M78.57,264.04c.76.39,1.35.69,1.93.98-2.62,11.04-2.22,9.35-4.85,20.4h-14.92c2.91-6.43,4.37-9.65,7.28-16.08h-3.62c-3,6.43-4.5,9.65-7.5,16.08h-6.42c-3.69,0-6.06-3.91-4.36-7.19,7.34-14.11,14.67-28.22,22.01-42.33,9.66-.41,12.05-.51,21.71-.92,1.14,1.8,1.75,2.75,2.58,3.99-3.09,9.4-4.41,13.4-7.5,22.8-2.57.93-3.79,1.37-6.32,2.27ZM77.8,247.7h-3.32c-2.06,4.42-3.09,6.63-5.16,11.05h3.47c2-4.42,3-6.63,5-11.05Z"/>
    <path d="M86.65,263.58c2.81-1.19,4.21-1.79,6.97-2.98-1.89-1.19-2.82-1.79-4.65-2.98,3.4-8.73,5.09-13.1,8.49-21.84h26.91c-1.81,6.75-2.72,10.12-4.53,16.87h-12.78c.64-1.98.96-2.98,1.59-4.96h-3.32c-1.15,3.41-1.72,5.12-2.86,8.54h16.4c-.94,3.49-1.41,5.24-2.34,8.73h-16.99c-1.15,3.41-1.72,5.12-2.86,8.54h3.68c.64-1.99.96-2.98,1.6-4.96h13.62c-1.81,6.75-2.72,10.12-4.53,16.87h-32.89c3.4-8.73,5.09-13.1,8.49-21.84Z"/>
    <path d="M153.71,235.79c-1.19,8.73-1.79,13.1-2.99,21.84h-13.04c.75-3.97,1.13-5.95,1.89-9.92h-3.38c-1.1,5.4-1.66,8.1-2.76,13.5h16.8c-1.33,9.69-1.99,14.53-3.31,24.22h-32.96c1.23-4.76,1.84-7.15,3.07-11.91h17.64c.27-1.43.41-2.14.68-3.57h-17.4c2.93-11.38,5.86-22.76,8.8-34.14h26.97Z"/>
    <path d="M152.59,263.58c2.5-1.19,3.74-1.79,6.18-2.98-2.2-1.19-3.29-1.79-5.43-2.98,1.1-8.73,1.65-13.1,2.75-21.84h26.91c-.04,6.75-.06,10.12-.1,16.87h-12.78c.12-1.98.18-2.98.29-4.96h-3.32c-.25,3.41-.37,5.12-.62,8.54h16.4c-.02,3.49-.03,5.24-.05,8.73h-16.99c-.25,3.41-.37,5.12-.62,8.54h3.68c.12-1.99.18-2.98.29-4.96h13.62c-.04,6.75-.06,10.12-.1,16.87h-32.89c1.1-8.73,1.65-13.1,2.76-21.84Z"/>
    <path d="M185.5,258.22h16.6c-.31-4.21-.46-6.31-.76-10.52h-3.38c.16,2.78.24,4.17.4,6.95h-12.88c-.04-7.54-.06-11.31-.09-18.86h26.97c2.08,16.54,4.16,33.08,6.24,49.63h-14.52c-.15-2.01-.22-3.02-.36-5.03-1.39,2.01-2.1,3.02-3.56,5.03h-14.52c-.05-10.88-.08-16.32-.14-27.19ZM202.74,266.95h-3.66c.15,2.62.23,3.93.38,6.55h3.75c-.19-2.62-.29-3.93-.48-6.55Z"/>
    <path d="M243.7,264.04c2.29.87,3.45,1.31,5.78,2.18,1.97,7.68,2.96,11.51,4.93,19.19h-14.52c-1.31-6.43-1.97-9.65-3.28-16.08h-3.62c1.22,6.43,1.83,9.65,3.05,16.08h-14.52c-2.26-16.54-4.52-33.08-6.77-49.63h22.16c2.32,1.8,3.51,2.7,5.91,4.5,2.22,8.63,3.33,12.94,5.54,21.57-1.85.87-2.78,1.31-4.66,2.18ZM232.21,247.7h-3.32c.84,4.42,1.26,6.63,2.1,11.05h3.47c-.9-4.42-1.35-6.63-2.25-11.05Z"/>
    <path d="M244.05,235.79h26.97c4.42,11.38,8.84,22.76,13.26,34.14h-13.7c-2.98-8.89-4.47-13.34-7.45-22.23h-3.38c3.31,10.32,4.97,15.48,8.28,25.81h17.64c1.85,4.76,2.78,7.15,4.63,11.91h-32.96c-4.43-16.54-8.86-33.08-13.28-49.63Z"/>
    <path d="M288.5,235.79h11.88c7.43,14.3,14.87,28.59,22.3,42.89,1.6,3.07-.63,6.74-4.09,6.74h-6.92c-4.36-9.35-8.73-18.7-13.09-28.06h-3.52c4.23,9.35,8.46,18.7,12.69,28.06h-14.52c-6.6-16.54-13.21-33.08-19.81-49.63h11.88c2.32,5.13,3.48,7.7,5.81,12.84h3.39c-2.4-5.13-3.59-7.7-5.99-12.84Z"/>
  </g>
  <g>
    <g>
      <text class="cls-2" transform="translate(152.2 236.36)"><tspan x="0" y="0">?</tspan></text>
      <text class="cls-2" transform="translate(152.1 236.26)"><tspan x="0" y="0">?</tspan></text>
      <text class="cls-2" transform="translate(152 236.16)"><tspan x="0" y="0">?</tspan></text>
      <text class="cls-2" transform="translate(151.9 236.06)"><tspan x="0" y="0">?</tspan></text>
      <text class="cls-2" transform="translate(151.8 235.96)"><tspan x="0" y="0">?</tspan></text>
      <text class="cls-2" transform="translate(151.7 235.86)"><tspan x="0" y="0">?</tspan></text>
      <text class="cls-2" transform="translate(151.6 235.76)"><tspan x="0" y="0">?</tspan></text>
      <text class="cls-2" transform="translate(151.5 235.66)"><tspan x="0" y="0">?</tspan></text>
      <text class="cls-2" transform="translate(151.4 235.56)"><tspan x="0" y="0">?</tspan></text>
      <text class="cls-2" transform="translate(151.3 235.46)"><tspan x="0" y="0">?</tspan></text>
      <text class="cls-2" transform="translate(151.2 235.36)"><tspan x="0" y="0">?</tspan></text>
      <text class="cls-2" transform="translate(151.1 235.26)"><tspan x="0" y="0">?</tspan></text>
      <text class="cls-2" transform="translate(151 235.16)"><tspan x="0" y="0">?</tspan></text>
      <text class="cls-2" transform="translate(150.9 235.06)"><tspan x="0" y="0">?</tspan></text>
      <text class="cls-2" transform="translate(150.8 234.96)"><tspan x="0" y="0">?</tspan></text>
      <text class="cls-2" transform="translate(150.7 234.86)"><tspan x="0" y="0">?</tspan></text>
      <text class="cls-2" transform="translate(150.6 234.76)"><tspan x="0" y="0">?</tspan></text>
      <text class="cls-2" transform="translate(150.5 234.66)"><tspan x="0" y="0">?</tspan></text>
      <text class="cls-2" transform="translate(150.4 234.56)"><tspan x="0" y="0">?</tspan></text>
      <text class="cls-2" transform="translate(150.3 234.46)"><tspan x="0" y="0">?</tspan></text>
      <text class="cls-2" transform="translate(150.2 234.37)"><tspan x="0" y="0">?</tspan></text>
      <text class="cls-2" transform="translate(150.1 234.27)"><tspan x="0" y="0">?</tspan></text>
      <text class="cls-2" transform="translate(150 234.17)"><tspan x="0" y="0">?</tspan></text>
      <text class="cls-2" transform="translate(149.9 234.07)"><tspan x="0" y="0">?</tspan></text>
      <text class="cls-2" transform="translate(149.8 233.97)"><tspan x="0" y="0">?</tspan></text>
      <text class="cls-2" transform="translate(149.7 233.87)"><tspan x="0" y="0">?</tspan></text>
      <text class="cls-2" transform="translate(149.6 233.77)"><tspan x="0" y="0">?</tspan></text>
      <text class="cls-2" transform="translate(149.5 233.67)"><tspan x="0" y="0">?</tspan></text>
      <text class="cls-2" transform="translate(149.4 233.57)"><tspan x="0" y="0">?</tspan></text>
      <text class="cls-2" transform="translate(149.3 233.47)"><tspan x="0" y="0">?</tspan></text>
      <text class="cls-2" transform="translate(149.2 233.37)"><tspan x="0" y="0">?</tspan></text>
      <text class="cls-2" transform="translate(149.1 233.27)"><tspan x="0" y="0">?</tspan></text>
      <text class="cls-2" transform="translate(149 233.17)"><tspan x="0" y="0">?</tspan></text>
      <text class="cls-2" transform="translate(148.9 233.07)"><tspan x="0" y="0">?</tspan></text>
      <text class="cls-2" transform="translate(148.8 232.97)"><tspan x="0" y="0">?</tspan></text>
      <text class="cls-2" transform="translate(148.7 232.87)"><tspan x="0" y="0">?</tspan></text>
      <text class="cls-2" transform="translate(148.6 232.77)"><tspan x="0" y="0">?</tspan></text>
      <text class="cls-2" transform="translate(148.5 232.67)"><tspan x="0" y="0">?</tspan></text>
      <text class="cls-2" transform="translate(148.4 232.57)"><tspan x="0" y="0">?</tspan></text>
      <text class="cls-2" transform="translate(148.3 232.47)"><tspan x="0" y="0">?</tspan></text>
      <text class="cls-2" transform="translate(148.2 232.37)"><tspan x="0" y="0">?</tspan></text>
      <text class="cls-2" transform="translate(148.1 232.27)"><tspan x="0" y="0">?</tspan></text>
      <text class="cls-2" transform="translate(148 232.17)"><tspan x="0" y="0">?</tspan></text>
      <text class="cls-2" transform="translate(147.9 232.07)"><tspan x="0" y="0">?</tspan></text>
      <text class="cls-2" transform="translate(147.8 231.97)"><tspan x="0" y="0">?</tspan></text>
      <text class="cls-2" transform="translate(147.7 231.87)"><tspan x="0" y="0">?</tspan></text>
      <text class="cls-2" transform="translate(147.6 231.77)"><tspan x="0" y="0">?</tspan></text>
      <text class="cls-2" transform="translate(147.5 231.67)"><tspan x="0" y="0">?</tspan></text>
      <text class="cls-2" transform="translate(147.4 231.57)"><tspan x="0" y="0">?</tspan></text>
      <text class="cls-2" transform="translate(147.3 231.47)"><tspan x="0" y="0">?</tspan></text>
      <text class="cls-2" transform="translate(147.2 231.37)"><tspan x="0" y="0">?</tspan></text>
      <text class="cls-2" transform="translate(147.1 231.27)"><tspan x="0" y="0">?</tspan></text>
      <text class="cls-2" transform="translate(147 231.17)"><tspan x="0" y="0">?</tspan></text>
      <text class="cls-2" transform="translate(146.9 231.07)"><tspan x="0" y="0">?</tspan></text>
      <text class="cls-2" transform="translate(146.8 230.97)"><tspan x="0" y="0">?</tspan></text>
      <text class="cls-2" transform="translate(146.7 230.87)"><tspan x="0" y="0">?</tspan></text>
      <text class="cls-2" transform="translate(146.6 230.77)"><tspan x="0" y="0">?</tspan></text>
      <text class="cls-2" transform="translate(146.5 230.67)"><tspan x="0" y="0">?</tspan></text>
      <text class="cls-2" transform="translate(146.4 230.57)"><tspan x="0" y="0">?</tspan></text>
      <text class="cls-2" transform="translate(146.3 230.47)"><tspan x="0" y="0">?</tspan></text>
      <text class="cls-2" transform="translate(146.2 230.37)"><tspan x="0" y="0">?</tspan></text>
      <text class="cls-2" transform="translate(146.1 230.27)"><tspan x="0" y="0">?</tspan></text>
      <text class="cls-2" transform="translate(146 230.17)"><tspan x="0" y="0">?</tspan></text>
      <text class="cls-2" transform="translate(145.9 230.07)"><tspan x="0" y="0">?</tspan></text>
      <text class="cls-2" transform="translate(145.8 229.97)"><tspan x="0" y="0">?</tspan></text>
      <text class="cls-2" transform="translate(145.7 229.87)"><tspan x="0" y="0">?</tspan></text>
      <text class="cls-2" transform="translate(145.6 229.77)"><tspan x="0" y="0">?</tspan></text>
      <text class="cls-2" transform="translate(145.5 229.67)"><tspan x="0" y="0">?</tspan></text>
      <text class="cls-2" transform="translate(145.4 229.57)"><tspan x="0" y="0">?</tspan></text>
      <text class="cls-2" transform="translate(145.3 229.47)"><tspan x="0" y="0">?</tspan></text>
      <text class="cls-2" transform="translate(145.2 229.37)"><tspan x="0" y="0">?</tspan></text>
      <text class="cls-2" transform="translate(145.1 229.27)"><tspan x="0" y="0">?</tspan></text>
      <text class="cls-2" transform="translate(145 229.17)"><tspan x="0" y="0">?</tspan></text>
      <text class="cls-2" transform="translate(144.9 229.07)"><tspan x="0" y="0">?</tspan></text>
      <text class="cls-2" transform="translate(144.8 228.97)"><tspan x="0" y="0">?</tspan></text>
      <text class="cls-2" transform="translate(144.7 228.87)"><tspan x="0" y="0">?</tspan></text>
      <text class="cls-2" transform="translate(144.6 228.77)"><tspan x="0" y="0">?</tspan></text>
      <text class="cls-2" transform="translate(144.5 228.67)"><tspan x="0" y="0">?</tspan></text>
      <text class="cls-2" transform="translate(144.4 228.57)"><tspan x="0" y="0">?</tspan></text>
      <text class="cls-2" transform="translate(144.3 228.47)"><tspan x="0" y="0">?</tspan></text>
      <text class="cls-2" transform="translate(144.2 228.37)"><tspan x="0" y="0">?</tspan></text>
      <text class="cls-2" transform="translate(144.1 228.27)"><tspan x="0" y="0">?</tspan></text>
      <text class="cls-2" transform="translate(144 228.17)"><tspan x="0" y="0">?</tspan></text>
      <text class="cls-2" transform="translate(143.9 228.07)"><tspan x="0" y="0">?</tspan></text>
      <text class="cls-2" transform="translate(143.8 227.97)"><tspan x="0" y="0">?</tspan></text>
      <text class="cls-2" transform="translate(143.7 227.87)"><tspan x="0" y="0">?</tspan></text>
      <text class="cls-2" transform="translate(143.6 227.77)"><tspan x="0" y="0">?</tspan></text>
      <text class="cls-2" transform="translate(143.5 227.67)"><tspan x="0" y="0">?</tspan></text>
      <text class="cls-2" transform="translate(143.4 227.57)"><tspan x="0" y="0">?</tspan></text>
      <text class="cls-2" transform="translate(143.3 227.47)"><tspan x="0" y="0">?</tspan></text>
      <text class="cls-2" transform="translate(143.2 227.37)"><tspan x="0" y="0">?</tspan></text>
      <text class="cls-2" transform="translate(143.1 227.27)"><tspan x="0" y="0">?</tspan></text>
      <text class="cls-2" transform="translate(143 227.17)"><tspan x="0" y="0">?</tspan></text>
      <text class="cls-2" transform="translate(142.9 227.07)"><tspan x="0" y="0">?</tspan></text>
      <text class="cls-2" transform="translate(142.8 226.97)"><tspan x="0" y="0">?</tspan></text>
      <text class="cls-2" transform="translate(142.7 226.87)"><tspan x="0" y="0">?</tspan></text>
      <text class="cls-2" transform="translate(142.6 226.77)"><tspan x="0" y="0">?</tspan></text>
    </g>
    <text class="cls-4" transform="translate(142.6 226.77)"><tspan x="0" y="0">?</tspan></text>
  </g>
</svg>