<?xml version="1.0" encoding="UTF-8"?>
<svg id="Layer_2" data-name="Layer 2" xmlns="http://www.w3.org/2000/svg" viewBox="0 0 139.75 141.57">
  <defs>
    <style>
      .cls-1 {
        fill: #171a21;
      }
    </style>
  </defs>
  <path class="cls-1" d="M139.75,111.63c-47.99-6.68-68.87-3.5-113.96,29.94,9.64-46.37-1.15-75.74-25.8-109.92,22.47,2.15,36.82,1.43,57.54-3.92,1.74,28.7,2.49,50.49-9.02,77.36,33.63-30.59,69.42-23.92,69.42-23.92,5.55,12.05,12.25,21.96,21.82,30.47Z"/>
  <path class="cls-1" d="M89.39,31.34c-6.69,3.37-11.18,5.34-17.11,10.88.78-7.13.71-11.91-.16-18.6,13-4.51,23.75-11.86,36.29-23.62-1.93,9.28-2.12,17.34-2.09,23.75-9.72,7.79-15.09,14.26-20.82,32.06,10.47-10.78,15.83-12.98,21.2-14.5.3,8.38,2.03,15.55,5.22,23.82-15.26-2.69-32.09,3.11-44.85,11.54,4.08-15.53,11.01-31.98,22.32-45.33Z"/>
</svg>