<?xml version="1.0" encoding="UTF-8"?>
<svg id="Layer_3" data-name="Layer 3" xmlns="http://www.w3.org/2000/svg" viewBox="0 0 180 180">
  <defs>
    <style>
      .cls-1 {
        fill: #ffc655;
      }
    </style>
  </defs>
  <path class="cls-1" d="M97.46,18.04l16.08,42.65c1,2.66,3.11,4.76,5.77,5.77l42.65,16.08c6.88,2.59,6.88,12.32,0,14.91l-42.65,16.08c-2.66,1-4.76,3.11-5.77,5.77l-16.08,42.65c-2.59,6.88-12.32,6.88-14.91,0l-16.08-42.65c-1-2.66-3.11-4.76-5.77-5.77l-42.65-16.08c-6.88-2.59-6.88-12.32,0-14.91l42.65-16.08c2.66-1,4.76-3.11,5.77-5.77l16.08-42.65c2.59-6.88,12.32-6.88,14.91,0Z"/>
</svg>