<?xml version="1.0" encoding="UTF-8"?>
<svg id="Layer_4" data-name="Layer 4" xmlns="http://www.w3.org/2000/svg" viewBox="0 0 484.44 237.7">
  <defs>
    <style>
      .cls-1 {
        fill: #7eb500;
      }

      .cls-2 {
        fill: #afed4c;
      }

      .cls-3 {
        fill: #fff;
      }
    </style>
  </defs>
  <g>
    <path class="cls-2" d="M54.24,12h375.95c23.31,0,42.24,18.93,42.24,42.24v129.22c0,23.31-18.93,42.24-42.24,42.24H54.24c-23.31,0-42.24-18.93-42.24-42.24V54.24c0-23.31,18.93-42.24,42.24-42.24Z"/>
    <path class="cls-3" d="M430.19,24c16.63,0,30.24,13.61,30.24,30.24v129.22c0,16.63-13.61,30.24-30.24,30.24H54.24c-16.63,0-30.24-13.61-30.24-30.24V54.24c0-16.63,13.61-30.24,30.24-30.24h375.95M430.19,0H54.24C24.33,0,0,24.33,0,54.24v129.22c0,29.91,24.33,54.24,54.24,54.24h375.95c29.91,0,54.24-24.33,54.24-54.24V54.24c0-29.91-24.33-54.24-54.24-54.24h0Z"/>
    <path d="M430.19,24c16.63,0,30.24,13.61,30.24,30.24v129.22c0,16.63-13.61,30.24-30.24,30.24H54.24c-16.63,0-30.24-13.61-30.24-30.24V54.24c0-16.63,13.61-30.24,30.24-30.24h375.95M430.19,20H54.24c-18.88,0-34.24,15.36-34.24,34.24v129.22c0,18.88,15.36,34.24,34.24,34.24h375.95c18.88,0,34.24-15.36,34.24-34.24V54.24c0-18.88-15.36-34.24-34.24-34.24h0Z"/>
  </g>
  <g>
    <path d="M65.1,217.95c-.68.25-1.21.17-1.61-.23-.4-.4-.53-1.01-.4-1.82,3.82-23.72,7.64-47.44,11.47-71.15.13-.81.49-1.6,1.08-2.37.59-.77,1.22-1.28,1.89-1.53,10.63-3.9,15.95-5.7,26.58-8.99,5.78-1.79,10.77-2.12,14.95-1.06,4.18,1.06,7.28,3.52,9.29,7.3,2.01,3.79,2.54,9.02,1.7,15.55-.4,3.11-.77,5.89-1.16,8.27s-.89,5.11-1.49,8.14c-1.37,6.94-3.69,13.01-7,18.18-3.31,5.17-7.37,9.41-12.18,12.8-4.81,3.39-10.17,5.96-16.08,7.78-10.82,3.33-16.23,5.16-27.04,9.13ZM89.14,189.38c2.4-.77,3.6-1.15,6-1.89,1.35-.42,2.62-1.1,3.8-2.05,1.18-.95,2.21-2.18,3.1-3.7.89-1.52,1.51-3.35,1.92-5.39.43-2.14.85-4.1,1.15-5.8.3-1.7.58-3.41.83-5.12.25-1.71.45-3.57.66-5.49.34-3.01-.08-5.05-1.36-6-1.28-.94-2.97-1.1-5.06-.45-2.22.69-3.32,1.04-5.54,1.75-1.83,11.38-3.67,22.76-5.5,34.14Z"/>
    <path d="M136.67,197.39c-.67.15-1.25,0-1.74-.46-.49-.46-.73-1.08-.73-1.86v-69c0-.78.24-1.51.73-2.2.49-.68,1.07-1.1,1.74-1.25,15.6-3.44,31.37-6.25,47.24-8.13.68-.08,1.26.13,1.76.64.49.51.74,1.16.74,1.94,0,6.02,0,9.04,0,15.06,0,.78-.25,1.49-.74,2.12-.49.63-1.08.98-1.76,1.07-11.1,1.35-16.64,2.19-27.68,4.18v6.73c10.23-1.85,15.36-2.64,25.64-3.93.68-.09,1.27.13,1.76.64.49.51.74,1.16.74,1.94v13.89c0,.78-.25,1.49-.74,2.12-.49.63-1.08.99-1.76,1.07-10.28,1.3-15.41,2.08-25.64,3.93v6.73c9.4-1.73,18.92-3.16,28.42-4.27.68-.08,1.27.13,1.76.65.49.51.74,1.16.74,1.94v15.06c0,.78-.25,1.49-.74,2.11-.49.63-1.08.98-1.76,1.06-16.12,1.88-32.13,4.73-47.97,8.22Z"/>
    <path d="M221.97,187.21c-6.87.29-12.53-.4-16.97-2.19-4.45-1.79-7.78-4.29-10.01-7.56-2.22-3.27-3.46-6.91-3.52-10.75,0-.63.2-1.21.6-1.72.4-.5.88-.79,1.44-.84,7.04-.71,10.56-1.01,17.61-1.46.99-.06,1.75.05,2.27.34.53.29,1.1.74,1.72,1.24.58.47,1.25.87,1.9,1.23.65.36,1.39.61,2.23.74.84.14,1.75.19,2.74.14,2.1-.09,3.79-.41,5.06-.99,1.27-.57,1.9-1.32,1.9-2.25,0-.85-.36-1.56-1.07-2.1-.71-.55-1.94-1.03-3.67-1.43-1.73-.4-4.18-.71-7.24-1.01-4.84-.47-9.12-1.55-12.71-3.12s-6.35-3.86-8.29-6.91c-1.94-3.05-2.92-6.92-2.92-11.62s1.19-9.24,3.57-13.17c2.38-3.93,5.68-7.11,9.92-9.49,4.23-2.38,9.17-3.72,14.79-3.97,4.64-.2,8.76.38,12.35,1.71,3.59,1.32,6.62,3.13,9.1,5.37,2.48,2.25,4.36,4.67,5.66,7.25,1.3,2.58,2.01,5.08,2.04,7.4,0,.63-.2,1.19-.6,1.65-.4.46-.85.68-1.35.68-7.43-.1-11.14-.07-18.57.11-.87.02-1.56-.1-2.09-.37-.52-.27-1.07-.68-1.62-1.23-.31-.34-.88-.73-1.72-1.17-.84-.43-1.9-.62-3.2-.57-1.55.07-2.68.39-3.39.96-.71.57-1.07,1.32-1.07,2.25,0,.64.28,1.23.83,1.77.56.54,1.58.99,3.06,1.35,1.49.36,3.64.72,6.4,1.04,6.14.7,11.16,1.99,14.9,3.88,3.74,1.89,6.47,4.44,8.17,7.6,1.7,3.16,2.55,7.06,2.55,11.69,0,5.2-1.35,9.65-4.04,13.39-2.69,3.74-6.36,6.61-11,8.68-4.64,2.07-9.9,3.2-15.78,3.45Z"/>
    <path d="M260.59,186.06c-.68-.03-1.27-.33-1.76-.92-.49-.59-.74-1.27-.74-2.05v-69c0-.78.25-1.45.74-2,.49-.55,1.08-.82,1.76-.79,7.57.29,11.36.51,18.92,1.1.68.05,1.27.39,1.76.99.49.61.74,1.31.74,2.09,0,23,0,46,0,69,0,.78-.25,1.44-.74,1.97-.49.53-1.08.77-1.76.71-7.56-.59-11.35-.81-18.92-1.1Z"/>
    <path d="M320.17,193.12c-6.21-1.01-11.59-2.84-16.15-5.57-4.56-2.73-8.14-6.36-10.73-10.98s-4.07-10.29-4.26-16.89c-.08-2.9-.09-6.1-.09-9.52s0-6.68.09-9.71c.19-6.26,1.68-11.43,4.3-15.32,2.62-3.89,6.25-6.62,10.87-8.12s9.95-1.8,15.97-.81c4.85.79,9.21,2.2,13.07,4.19,3.86,1.99,7.17,4.39,9.92,7.19,2.75,2.79,4.86,5.81,6.32,9.03,1.46,3.22,2.26,6.47,2.29,9.66,0,.63-.2,1.15-.59,1.52-.4.37-.87.49-1.42.37-8.09-1.84-12.15-2.68-20.28-4.17-.68-.12-1.21-.33-1.61-.61-.4-.29-.78-.64-1.06-1.04-.25-.37-.6-.98-1.06-1.74-.46-.76-1.12-1.48-1.98-2.16-.86-.68-2.06-1.15-3.59-1.4-2.27-.37-4,.02-5.16,1.16-1.17,1.14-1.83,3.07-1.94,5.74-.22,5.84-.21,11.96,0,18.16.11,3.21.83,5.64,2.12,7.26,1.29,1.62,3.07,2.61,5.35,2.98,1.54.25,2.89.23,4.05-.06,1.16-.3,2.09-.95,2.76-1.97.67-1.02,1.01-2.42,1.01-4.2v-.11c-1.73-.31-2.6-.47-4.33-.76-.68-.12-1.26-.5-1.75-1.15-.49-.65-.74-1.37-.74-2.15v-11.86c0-.78.25-1.42.74-1.91.49-.49,1.07-.67,1.75-.56,10.13,1.74,15.18,2.75,25.26,5.03.67.15,1.25.57,1.74,1.25.49.68.73,1.42.73,2.2v13.89c0,6.41-1.34,11.47-4.03,15.21-2.69,3.74-6.4,6.23-11.14,7.53-4.75,1.3-10.22,1.4-16.42.39Z"/>
    <path d="M365.47,200.79c-.69-.17-1.32-.6-1.91-1.3s-.93-1.44-1.05-2.23c-3.33-23.19-6.67-46.38-10-69.56-.11-.79.04-1.41.46-1.86.42-.45.97-.59,1.66-.42,5.93,1.47,8.9,2.24,14.83,3.89,1.25.35,2.2.93,2.86,1.73.66.81,1.1,1.42,1.34,1.83,6.75,11.52,13.47,23.05,20.14,34.61-1.41-9.8-2.82-19.6-4.23-29.4-.11-.79.04-1.39.46-1.81.42-.41.97-.51,1.66-.29,6.79,2.19,10.18,3.35,16.96,5.78.69.25,1.32.75,1.9,1.5.58.75.93,1.53,1.04,2.32,3.34,23.19,6.67,46.38,10,69.56.11.79-.04,1.38-.45,1.77-.42.39-.97.47-1.65.22-5.92-2.12-8.88-3.14-14.8-5.08-1.25-.41-2.21-1.04-2.87-1.91-.66-.86-1.11-1.47-1.33-1.81-6.56-10.78-13.16-21.53-19.8-32.27,1.55,10.81,2.33,16.22,3.89,27.03.11.79-.04,1.4-.46,1.83-.42.43-.97.55-1.66.36-6.79-1.92-10.19-2.81-16.99-4.49Z"/>
  </g>
  <rect x="297.93" y="64.38" width="18.87" height="30.66"/>
  <rect x="168.22" y="69.09" width="20.05" height="24.76"/>
  <rect x="130.49" y="69.09" width="21.81" height="26.53"/>
  <g>
    <g>
      <path d="M224,126.73c-2.15,0-4.33-.39-6.49-1.18-4.91-1.79-9.14-5.29-12.57-10.4-.53-.81-1.05-1.6-1.54-2.37-.26.56-.53,1.14-.82,1.73-1.79,3.84-4.38,6.86-7.68,8.97-3.43,2.2-7.19,3.24-11.22,3.07-3.97-.16-7.73-1.53-11.19-4.08l-.2-.15c-3.16-2.48-5.27-5.61-6.26-9.31-.89-3.28-.92-6.71-.12-10.19.75-3.24,2.17-6.29,4.2-9.07l.07-.09c2.75-3.64,5.86-6.85,9.25-9.52.46-.36.92-.72,1.39-1.08-.91-.7-1.82-1.42-2.71-2.13-2.28-1.81-4.47-3.96-6.52-6.39l-.16-.2c-2.32-2.94-3.96-6.12-4.87-9.48-1.04-3.79-1-7.56.12-11.2,1.2-3.88,3.72-7.19,7.29-9.59,4-2.76,8.44-3.8,12.85-3.03,3.79.67,7.33,2.41,10.52,5.16,2.78,2.4,5.19,5.4,7.16,8.92.22.37.43.75.65,1.12.47-1.09,1-2.25,1.59-3.47,1.52-3.22,3.69-5.88,6.43-7.9,2.87-2.11,6.13-3.35,9.69-3.67,3.84-.36,7.57.58,11.09,2.76,3.68,2.21,6.28,5.47,7.53,9.45,1.11,3.55,1.19,7.3.22,11.16-.89,3.57-2.63,6.94-5.16,10.01-2.54,3.01-5.54,5.65-8.99,7.92.27.24.55.48.82.72,3.46,3.02,6.62,6.55,9.39,10.49,3.45,4.91,5.08,10.08,4.84,15.37-.28,6.1-3.15,11.12-8.31,14.52l-.13.08c-3.24,2.05-6.68,3.08-10.17,3.08ZM205.84,85.83l2.09,3.46c1.5,2.47,3.05,5.1,4.62,7.82,1.49,2.58,3.41,5.67,5.72,9.2,1.46,2.16,3.06,3.61,4.73,4.22.83.3,1.45.33,2.55-.35.86-.58,1.03-1,1.07-1.85.08-1.69-.56-3.47-1.94-5.43-2.04-2.89-4.33-5.46-6.83-7.64-3-2.62-6.17-5.46-9.41-8.44l-3.41-3.14-.26.25,1.48,1.65-.41.26ZM182.08,109.67c1.08.76,1.79.88,2.25.9.72.03,1.29-.14,1.94-.56.73-.47,1.33-1.22,1.82-2.29l.08-.16c1.18-2.42,2.02-4.5,2.49-6.18.56-2,1-3.75,1.31-5.22.12-.59.26-1.17.41-1.74-1.06.76-2.07,1.52-3.03,2.28-2.3,1.81-4.44,4.02-6.36,6.55-.74,1.02-1.23,2.06-1.49,3.18-.21.92-.22,1.68-.02,2.41.04.14.11.41.61.83ZM183.91,64.33c1.34,1.58,2.74,2.96,4.17,4.09,1.78,1.42,3.6,2.83,5.43,4.18,1.91,1.42,3.71,3.02,5.38,4.77l.23-.58-.14-.2c-1.33-1.93-2.73-4.09-4.16-6.44-1.39-2.28-2.8-4.66-4.19-7.07l-.06-.11c-1.06-1.91-2.3-3.48-3.68-4.67-.99-.86-1.92-1.35-2.84-1.52-.24-.03-.84.34-1.01.46l-.13.09c-.78.52-.89.88-.94,1.05-.22.7-.21,1.4.02,2.25.34,1.26.97,2.47,1.92,3.7ZM224.41,57.12s-.07,0-.09,0c-.65.06-1.16.25-1.66.62-.61.45-1.07,1.04-1.46,1.87l-.05.11c-.99,2.04-1.75,3.81-2.24,5.27-.65,1.93-1.4,3.75-2.22,5.42.65-.39,1.3-.79,1.93-1.2,2.22-1.44,4.11-3.08,5.63-4.88.97-1.17,1.62-2.4,1.94-3.66.32-1.29.17-2.04.03-2.49-.05-.15-.09-.27-.51-.52l-.15-.09c-.63-.39-.98-.44-1.15-.44Z"/>
      <path d="M308.71,126.8h-.13c-4.47-.08-8.82-.69-12.91-1.81-4.49-1.24-8.58-3.29-12.14-6.11-3.77-2.98-6.74-6.95-8.83-11.8-1.98-4.61-2.99-10.2-2.99-16.61v-32.34c0-7.1,3.38-11.11,6.22-13.23,3.41-2.54,7.38-3.83,11.8-3.83s8.27,1.28,11.7,3.79c2.88,2.12,5.06,5.4,6.57,8.54.68-1.98,1.75-4.01,3.41-5.91,3.65-4.2,8.66-6.42,14.48-6.42s10.83,2.21,14.34,6.39c3.2,3.83,4.83,9.15,4.83,15.82v27.19c0,6.36-.95,11.92-2.83,16.52-1.99,4.87-4.84,8.87-8.49,11.9-3.52,2.93-7.59,5.03-12.09,6.25-4.06,1.1-8.41,1.66-12.92,1.66ZM287.75,57.55c-.02.13-.04.32-.04.58v32.34c0,4.23.57,7.69,1.69,10.29,1.04,2.41,2.36,4.23,4.05,5.56,1.91,1.51,4.02,2.57,6.47,3.24,2.78.76,5.76,1.18,8.87,1.24,3.07,0,5.98-.38,8.67-1.1,2.3-.62,4.28-1.64,6.04-3.11,1.63-1.36,2.91-3.2,3.91-5.65,1.09-2.68,1.65-6.2,1.65-10.47v-27.19c0-4.04-.91-5.33-1.09-5.55-.21-.25-.56-.66-2.07-.66s-1.98.44-2.41.92c-.5.57-.74,1.52-.52,4.73.33,4.66.72,8.37,1.67,12.42,2.56,10.95-.78,17.15-4.03,20.42-3.6,3.62-8.02,5.6-12.44,5.6h-.1c-4.01-.03-7.68-1.65-10.63-4.69-3.62-3.73-5.48-9.12-5.22-15.15.14-3.44.92-6.6,1.6-9.38.15-.63.31-1.25.45-1.88.5-2.15.95-4.58.56-6.38-.51-2.35-2.12-5.28-2.9-5.96-.61-.44-1.28-.65-2.18-.65-.98,0-1.56.22-1.98.48ZM308.84,77.85c-.33,1.48-.59,2.87-.65,4.14-.05,1.25.14,2.24.41,2.84.19-.14.42-.32.66-.56.17-.23.64-1.83-.21-5.48-.07-.31-.15-.63-.21-.94Z"/>
      <path d="M142.43,126.8h-.13c-4.47-.08-8.82-.69-12.91-1.81-4.49-1.24-8.58-3.29-12.14-6.11-3.77-2.98-6.75-6.95-8.83-11.8-1.98-4.61-2.99-10.2-2.99-16.61v-32.34c0-7.1,3.38-11.11,6.22-13.23,3.41-2.54,7.38-3.83,11.8-3.83s8.27,1.28,11.7,3.79c2.88,2.12,5.06,5.4,6.57,8.54.68-1.98,1.75-4.01,3.41-5.91,3.66-4.2,8.66-6.42,14.48-6.42s10.83,2.21,14.34,6.39c3.2,3.83,4.83,9.15,4.83,15.82v27.19c0,6.36-.95,11.91-2.84,16.52-1.99,4.87-4.84,8.87-8.49,11.9-3.52,2.93-7.59,5.03-12.09,6.25-4.06,1.1-8.41,1.66-12.92,1.66ZM121.47,57.55c-.02.13-.04.32-.04.58v32.34c0,4.23.57,7.69,1.69,10.29,1.04,2.41,2.36,4.23,4.05,5.56,1.9,1.51,4.02,2.57,6.46,3.24,2.78.76,5.76,1.18,8.87,1.24,3.07,0,5.98-.38,8.67-1.1,2.31-.62,4.28-1.64,6.04-3.11,1.63-1.36,2.91-3.21,3.91-5.65,1.09-2.68,1.65-6.2,1.65-10.47v-27.19c0-4.04-.91-5.33-1.09-5.55-.21-.25-.56-.67-2.07-.67s-1.98.44-2.41.92c-.49.57-.74,1.52-.51,4.73.33,4.67.72,8.37,1.67,12.42,2.56,10.95-.78,17.15-4.03,20.42-3.6,3.61-8.01,5.6-12.44,5.6h-.1c-4.01-.03-7.68-1.65-10.63-4.69-3.62-3.73-5.47-9.11-5.22-15.15.14-3.44.92-6.59,1.59-9.38.15-.63.31-1.26.45-1.89.5-2.15.95-4.59.56-6.39-.51-2.34-2.12-5.28-2.9-5.96-.61-.45-1.28-.65-2.18-.65-.98,0-1.56.22-1.98.48ZM142.56,77.85c-.34,1.48-.6,2.87-.65,4.14-.05,1.25.15,2.23.41,2.84.19-.14.42-.32.66-.56.17-.23.64-1.83-.21-5.48-.07-.31-.14-.63-.21-.94Z"/>
      <path d="M350.56,126.5c-.48,0-.97-.02-1.46-.06h0c-5.88-.49-10.73-3.35-13.66-8.06-5-8.04-3.31-19.64-.36-27.12,2.16-5.46,2.72-9.64,1.99-14.9-.1-.7-.2-1.4-.3-2.11-.54-3.66-1.15-7.81-.85-12.17.73-10.47,6.18-17.85,14.21-19.28,3.33-.59,6.89-.15,10.58,1.3,1.5.59,2.78,1.25,3.91,2.02,8.08,5.49,9.71,15.52,8.54,23.08-.45,2.92-1.06,5.65-1.65,8.28-1.18,5.26-2.2,9.8-1.66,14.52.07.65.16,1.31.24,1.96.57,4.66,1.22,9.95.01,15.47-1.88,8.63-9.61,17.06-19.54,17.06ZM350.42,110.49c1.41.11,3.56-2.22,4.05-4.47.62-2.86.19-6.38-.26-10.11-.09-.7-.17-1.4-.25-2.09-.85-7.41.57-13.73,1.95-19.84.56-2.48,1.08-4.83,1.45-7.21.49-3.16-.27-6.42-1.73-7.41-.05-.03-.24-.15-.77-.36-.87-.34-1.41-.43-1.69-.44-.44.6-1.12,2.28-1.29,4.64-.18,2.62.25,5.58.72,8.71.11.75.22,1.5.33,2.25,1.11,8.04.23,14.91-2.96,22.97-1.84,4.65-2.28,10.63-.93,12.79.13.21.29.47,1.39.56h0Z"/>
      <path d="M248.37,124.36c-2.47,0-4.52-.78-5.91-1.4-4.37-1.95-7.25-4.72-8.56-8.23-1.3-3.48-.95-7.03-.7-9.62l.07-.72c.32-3.56,1.27-6.88,2.2-10.08l.16-.55c.56-1.93,1.08-3.87,1.6-5.79,1.57-5.76,3.18-11.72,5.61-17.7l.56-1.39c1.63-4.02,3.31-8.19,5.42-12.3l.26-.5c2.14-4.22,7.13-14.06,17.27-13.13,1.78.17,3.52.73,5.3,1.73,7.74,4.31,11.85,13.65,9.56,21.71-.43,1.5-1.01,2.77-1.48,3.79-.97,2.11-1.83,4.26-2.75,6.53-.87,2.17-1.77,4.41-2.79,6.67-2.24,4.95-4.08,10.03-6.03,15.4l-.77,2.12c-.37,1.01-.71,2.03-1.05,3.03-1.65,4.87-3.52,10.39-7.91,15.36-1.01,1.15-4.1,4.65-9.13,5.05-.31.02-.62.04-.92.04ZM249.29,108.48h0ZM265.19,59.98c-.74,1.15-1.49,2.62-1.86,3.34l-.29.57c-1.78,3.47-3.26,7.12-4.82,10.98l-.57,1.41c-2.06,5.09-3.49,10.33-5,15.88-.54,2-1.09,4.01-1.67,6.02l-.16.56c-.44,1.51-.84,2.9-1.14,4.19.51-1.3.98-2.69,1.48-4.15.38-1.12.76-2.25,1.18-3.38l.77-2.1c1.97-5.42,4-11.01,6.49-16.52.88-1.95,1.68-3.94,2.52-6.04.95-2.36,1.93-4.81,3.06-7.27.25-.54.54-1.16.62-1.47.11-.38-.13-1.23-.62-2.01Z"/>
    </g>
    <g>
      <path class="cls-1" d="M176.56,98.48c2.35-3.11,4.96-5.8,7.82-8.06,2.86-2.26,6.04-4.47,9.54-6.63-1.59-1.78-3.32-3.37-5.2-4.77-1.88-1.4-3.75-2.85-5.63-4.34-1.88-1.49-3.67-3.26-5.39-5.3-1.66-2.1-2.8-4.31-3.44-6.63-.64-2.32-.62-4.56.05-6.73.67-2.16,2.05-3.94,4.15-5.34,2.29-1.59,4.61-2.18,6.96-1.77,2.35.41,4.58,1.53,6.68,3.34s3.91,4.09,5.44,6.82c1.4,2.42,2.77,4.72,4.1,6.92,1.34,2.19,2.64,4.21,3.91,6.06,1.72-1.65,2.96-3.23,3.72-4.72.76-1.49,1.45-3.13,2.05-4.91.6-1.78,1.48-3.85,2.62-6.2.95-2.04,2.27-3.67,3.96-4.91,1.68-1.24,3.58-1.96,5.68-2.15,2.1-.19,4.16.35,6.2,1.62,2.04,1.21,3.39,2.88,4.05,5.01.67,2.13.7,4.4.1,6.82-.61,2.42-1.8,4.71-3.58,6.87-2.04,2.42-4.5,4.56-7.39,6.44-2.89,1.88-5.93,3.55-9.11,5.01,3.18,2.93,6.26,5.69,9.25,8.3,2.99,2.61,5.69,5.63,8.11,9.06,2.42,3.44,3.55,6.9,3.39,10.4-.16,3.5-1.73,6.23-4.72,8.21-3.12,1.97-6.33,2.35-9.64,1.14-3.31-1.21-6.2-3.66-8.68-7.35-2.42-3.69-4.4-6.88-5.96-9.59-1.56-2.7-3.07-5.26-4.53-7.68-.51,1.27-.94,2.74-1.29,4.39-.35,1.65-.83,3.56-1.43,5.72-.61,2.16-1.61,4.67-3.01,7.54-1.14,2.48-2.73,4.37-4.77,5.68-2.04,1.3-4.23,1.91-6.58,1.81-2.35-.1-4.61-.94-6.77-2.53-1.78-1.4-2.94-3.1-3.48-5.1-.54-2-.56-4.1-.05-6.3.51-2.19,1.46-4.25,2.86-6.15Z"/>
      <path class="cls-1" d="M308.71,118.8c-3.82-.06-7.46-.57-10.92-1.53-3.47-.95-6.57-2.51-9.3-4.67-2.74-2.16-4.88-5.06-6.44-8.68-1.56-3.62-2.34-8.11-2.34-13.45v-32.34c0-3.05,1-5.33,3-6.82,2-1.49,4.34-2.24,7.01-2.24s4.93.75,6.96,2.24c2.82,2.07,5.2,7.31,5.93,10.66.71,3.25.17,6.64-.58,9.89-.75,3.24-1.71,6.47-1.85,9.8s.66,6.86,2.97,9.25c3.69,3.81,8.46,2.32,11.76-.99,3.22-3.23,2.95-8.5,1.91-12.95-1.1-4.7-1.53-8.95-1.86-13.69-.27-3.8-.21-7.47,2.46-10.54,2.13-2.45,4.94-3.67,8.44-3.67s6.23,1.18,8.2,3.53c1.97,2.35,2.96,5.92,2.96,10.69v27.19c0,5.34-.75,9.84-2.24,13.5-1.5,3.66-3.56,6.58-6.2,8.78-2.64,2.19-5.66,3.75-9.06,4.67-3.4.92-7.01,1.38-10.83,1.38Z"/>
      <path class="cls-1" d="M142.43,118.8c-3.82-.06-7.46-.57-10.92-1.53-3.47-.95-6.57-2.51-9.3-4.67-2.74-2.16-4.88-5.06-6.44-8.68-1.56-3.62-2.34-8.11-2.34-13.45v-32.34c0-3.05,1-5.33,3-6.82,2-1.49,4.34-2.24,7.01-2.24s4.93.75,6.96,2.24c2.82,2.07,5.2,7.31,5.93,10.66.71,3.25.17,6.64-.58,9.89s-1.71,6.47-1.85,9.8c-.14,3.33.66,6.86,2.97,9.25,3.69,3.81,8.46,2.32,11.76-.99,3.22-3.23,2.95-8.5,1.91-12.95-1.1-4.7-1.53-8.95-1.86-13.69-.27-3.8-.21-7.47,2.46-10.54,2.13-2.45,4.94-3.67,8.44-3.67s6.23,1.18,8.2,3.53c1.97,2.35,2.96,5.92,2.96,10.69v27.19c0,5.34-.75,9.84-2.24,13.5-1.5,3.66-3.56,6.58-6.2,8.78-2.64,2.19-5.66,3.75-9.06,4.67-3.4.92-7.01,1.38-10.83,1.38Z"/>
      <path class="cls-1" d="M349.76,118.46c-11.97-.99-10.38-16.31-7.24-24.27,2.54-6.42,3.43-12.01,2.48-18.94-.58-4.19-1.39-8.4-1.1-12.62.33-4.68,2.3-11.01,7.63-11.96,2.1-.37,4.27.09,6.26.87.82.32,1.61.7,2.34,1.19,4.76,3.23,5.97,9.86,5.14,15.25-1.32,8.56-4.36,16.14-3.36,24.93.56,4.93,1.44,9.96.38,14.81-1.22,5.6-6.36,11.25-12.53,10.74Z"/>
      <path class="cls-1" d="M241.23,105.1c-.18,2.07-.58,4.85.16,6.84.65,1.75,2.49,2.9,4.32,3.72.92.41,1.91.78,2.94.69,1.57-.13,2.79-1.26,3.77-2.37,4.12-4.67,5.42-10.29,7.44-15.84,2.21-6.06,4.36-12.16,7.03-18.07,1.99-4.4,3.54-8.87,5.56-13.25.4-.86.8-1.73,1.05-2.63,1.28-4.5-1.4-10.11-5.76-12.54-.66-.37-1.39-.68-2.16-.75-4.95-.47-8.02,6.14-9.66,9.33-2.18,4.24-3.91,8.66-5.69,13.04-3.02,7.45-4.74,15.05-6.94,22.69-.92,3.19-1.81,6.17-2.07,9.13Z"/>
    </g>
  </g>
  <path class="cls-3" d="M329.58,202.76c-51.89-5.18-104.24-8.45-156.25-3.18,22.33-5.24,45.54-6.56,68.43-6.42,29.47.32,59.05,3.09,87.82,9.61h0Z"/>
  <path class="cls-3" d="M305.66,204.17c-25.96,0-52.27-.94-78.24-.68-25.89.16-52.24,1.43-77.97,4.48,25.3-6.25,51.92-8.15,77.94-8.48,26.03-.07,52.46,1.47,78.27,4.68h0Z"/>
  <g>
    <path class="cls-3" d="M81.46,112.38h0c-6.04-15.81-23.75-23.73-39.56-17.69h0c15.81-6.04,23.73-23.75,17.69-39.56h0c6.04,15.81,23.75,23.73,39.56,17.69h0c-15.81,6.04-23.73,23.75-17.69,39.56Z"/>
    <path d="M81.46,113.88c-.6,0-1.17-.37-1.4-.96-5.73-15.01-22.61-22.56-37.62-16.83-.77.3-1.64-.09-1.94-.87-.07-.18-.1-.36-.1-.54,0-.6.37-1.17.96-1.4,7.27-2.78,13.03-8.22,16.21-15.33,3.18-7.11,3.4-15.03.62-22.3-.07-.18-.1-.36-.1-.54,0-.6.37-1.17.96-1.4.77-.29,1.64.09,1.94.87,2.78,7.27,8.22,13.03,15.33,16.21,7.11,3.18,15.02,3.4,22.3.62.77-.3,1.64.09,1.94.87.07.18.1.36.1.54,0,.6-.37,1.17-.96,1.4-15.01,5.73-22.56,22.61-16.83,37.62.07.18.1.36.1.54,0,.6-.37,1.17-.96,1.4-.18.07-.36.1-.54.1ZM52.79,91.17c9.75,0,19.09,4.47,25.2,12.14-.59-10.39,3.93-20.52,12.07-27-5.07.3-10.19-.63-14.96-2.76-4.77-2.13-8.86-5.32-12.02-9.29.29,5.07-.63,10.17-2.77,14.94-2.14,4.78-5.33,8.87-9.31,12.04.6-.03,1.2-.05,1.8-.05Z"/>
  </g>
  <g>
    <path class="cls-3" d="M399.64,116.12h0c8.66-18.64.56-40.78-18.08-49.44h0c18.64,8.66,40.78.56,49.44-18.08h0c-8.66,18.64-.56,40.78,18.08,49.44h0c-18.64-8.66-40.78-.56-49.44,18.08Z"/>
    <path d="M399.64,117.62c-.21,0-.43-.04-.63-.14-.55-.25-.87-.79-.87-1.36,0-.21.04-.43.14-.63,4.02-8.65,4.43-18.36,1.15-27.32-3.28-8.96-9.85-16.11-18.5-20.13-.55-.25-.87-.79-.87-1.36,0-.21.04-.43.14-.63.35-.75,1.24-1.08,1.99-.73,8.65,4.02,18.36,4.43,27.32,1.15,8.96-3.28,16.11-9.85,20.13-18.5.35-.75,1.24-1.08,1.99-.73.55.25.87.79.87,1.36,0,.21-.04.43-.14.63-4.02,8.65-4.43,18.36-1.15,27.32,3.28,8.96,9.85,16.11,18.5,20.13.55.25.87.79.87,1.36,0,.21-.04.43-.14.63-.35.75-1.24,1.08-1.99.73-17.87-8.3-39.15-.51-47.45,17.35-.25.55-.8.87-1.36.87ZM391.28,71.19c4.91,4.25,8.68,9.69,10.97,15.95,2.29,6.26,2.92,12.86,1.91,19.27,8.71-10.02,22.08-14.91,35.2-12.87-4.91-4.25-8.68-9.69-10.97-15.95-2.29-6.26-2.92-12.86-1.91-19.27-8.71,10.02-22.08,14.91-35.2,12.87Z"/>
  </g>
  <g>
    <path class="cls-3" d="M428.09,155.97h0c3.6-9.71-1.36-20.49-11.06-24.09h0c9.71,3.6,20.49-1.36,24.09-11.06h0c-3.6,9.71,1.36,20.49,11.06,24.09h0c-9.71-3.6-20.49,1.36-24.09,11.06Z"/>
    <path d="M428.09,157.47c-.17,0-.35-.03-.52-.09-.6-.22-.98-.8-.98-1.41,0-.17.03-.35.09-.52,1.6-4.32,1.42-9-.5-13.19-1.92-4.19-5.36-7.37-9.68-8.97-.6-.22-.98-.8-.98-1.41,0-.17.03-.35.09-.52.29-.78,1.15-1.17,1.93-.88,8.92,3.3,18.86-1.26,22.16-10.18.29-.78,1.15-1.18,1.93-.88.6.22.98.8.98,1.41,0,.17-.03.35-.09.52-1.6,4.32-1.42,9,.5,13.19,1.92,4.19,5.36,7.37,9.68,8.97.6.22.98.8.98,1.41,0,.17-.03.35-.09.52-.29.78-1.15,1.17-1.93.88-8.92-3.3-18.86,1.26-22.16,10.18-.22.6-.8.98-1.41.98ZM424.22,134.55c1.95,1.79,3.55,3.98,4.69,6.46,1.14,2.48,1.76,5.11,1.85,7.76,1.79-1.95,3.98-3.55,6.46-4.69,2.48-1.14,5.11-1.76,7.76-1.85-1.95-1.79-3.55-3.98-4.69-6.46-1.14-2.48-1.76-5.11-1.85-7.76-1.79,1.95-3.98,3.55-6.46,4.69-2.48,1.14-5.11,1.76-7.76,1.85Z"/>
  </g>
  <g>
    <path class="cls-3" d="M59.03,149.38h0c-4.47-9.99-16.2-14.47-26.19-10h0c9.99-4.47,14.47-16.2,10-26.19h0c4.47,9.99,16.2,14.47,26.19,10h0c-9.99,4.47-14.47,16.2-10,26.19Z"/>
    <path d="M59.03,150.88c-.57,0-1.12-.33-1.37-.89-4.13-9.22-14.98-13.37-24.21-9.24-.76.34-1.64,0-1.98-.76-.09-.2-.13-.41-.13-.61,0-.57.33-1.12.89-1.37,9.22-4.13,13.37-14.99,9.24-24.21-.34-.76,0-1.64.76-1.98.75-.34,1.64,0,1.98.76,2,4.47,5.62,7.89,10.19,9.63,4.57,1.75,9.55,1.61,14.02-.39.75-.34,1.64,0,1.98.76.09.2.13.41.13.61,0,.57-.33,1.12-.89,1.37-4.47,2-7.89,5.62-9.63,10.19-1.75,4.57-1.61,9.55.39,14.02.09.2.13.41.13.61,0,.57-.33,1.12-.89,1.37-.2.09-.41.13-.61.13ZM40.9,136.15c5.55,0,10.93,2.17,14.92,6.05-.25-5.85,1.94-11.59,6.02-15.8-2.86.12-5.75-.34-8.52-1.39-2.76-1.05-5.21-2.63-7.27-4.62.12,2.86-.34,5.75-1.39,8.5-1.05,2.76-2.63,5.22-4.64,7.28.29-.01.58-.02.88-.02Z"/>
  </g>
  <g>
    <path class="cls-3" d="M75.91,49.8c-.16,0-.32-.02-.48-.05-1.9-.41-2.43-2.9-2.66-4.75-.58-4.6-1.08-9.5-.35-14.5.31-2.11,3.31-12.45,7.29-12.45,1.23,0,2.24.92,3,2.72,2.46,5.83-1.44,20.19-3,24.76-.54,1.59-1.76,4.26-3.8,4.26h0Z"/>
    <path d="M79.72,19.05c.74,0,1.45.61,2.08,2.11,2.21,5.25-1.2,18.68-3.03,24.05-.57,1.68-1.6,3.58-2.86,3.58-.09,0-.18,0-.27-.03-1.23-.27-1.67-2.23-1.88-3.89-.59-4.65-1.05-9.45-.35-14.23.44-3.03,3.55-11.6,6.3-11.6M79.72,17.05c-5.08,0-8.04,11.65-8.28,13.31-.75,5.12-.21,10.31.35,14.77.17,1.36.63,4.99,3.44,5.6.23.05.46.07.69.07,1.98,0,3.66-1.75,4.75-4.94.06-.18,6.05-18.19,2.98-25.48-1.16-2.75-2.78-3.33-3.93-3.33h0Z"/>
  </g>
  <g>
    <path class="cls-3" d="M89.67,50.54c-1.01-.02-1.9-.78-2.26-1.95-.26-.84-.23-1.73-.15-2.57.38-4.48,1.5-7.79,3.42-10.11,1.08-1.31,2.84-2.71,4.52-2.71,1.11,0,2.03.61,2.59,1.72,1.67,3.33-.2,8.08-5.56,14.13-.66.74-1.47,1.5-2.52,1.5h-.04Z"/>
    <path d="M95.2,34.19c.67,0,1.27.33,1.7,1.17,2.04,4.06-2.96,10.25-5.41,13.01-.51.57-1.11,1.16-1.77,1.16,0,0-.01,0-.02,0-.62-.01-1.11-.57-1.32-1.25-.21-.67-.18-1.44-.12-2.19.28-3.34,1.07-6.98,3.2-9.56.93-1.12,2.46-2.35,3.75-2.35M95.2,32.19c-2.55,0-4.69,2.35-5.29,3.07-2.06,2.49-3.25,5.98-3.65,10.67-.08.94-.11,1.95.2,2.95.49,1.59,1.74,2.64,3.2,2.66.01,0,.04,0,.05,0,1.64,0,2.78-1.29,3.27-1.84,5.66-6.38,7.58-11.51,5.7-15.24-.73-1.44-2-2.27-3.48-2.27h0Z"/>
  </g>
  <g>
    <path class="cls-3" d="M35.92,73.39c-.89,0-1.88-.51-2.55-.94-5.19-3.29-9.75-7.24-13.18-11.41-.67-.82-1.6-1.94-1.54-3.17.06-1.46,1.49-2.49,3.46-2.49.08,0,.17,0,.26,0,1.58.07,3.34.72,4.54,1.25,6.63,2.94,11.52,9.66,10.89,14.98-.03.29-.12,1.05-.83,1.49-.3.18-.65.28-1.03.28h0Z"/>
    <path d="M22.1,56.38c.07,0,.14,0,.21,0,1.21.06,2.7.51,4.18,1.17,6.4,2.84,10.85,9.31,10.3,13.95-.03.29-.1.59-.36.76-.14.09-.32.13-.51.13-.61,0-1.41-.4-2.02-.78-5.04-3.2-9.51-7.04-12.95-11.21-.66-.8-1.35-1.68-1.32-2.49.04-.97,1.18-1.53,2.47-1.53M22.1,54.38c-2.5,0-4.38,1.45-4.46,3.44-.07,1.61,1.04,2.96,1.77,3.85,3.5,4.25,8.14,8.27,13.42,11.62,1.14.73,2.18,1.09,3.09,1.09.58,0,1.1-.14,1.56-.43.74-.46,1.18-1.21,1.3-2.23.67-5.72-4.48-12.9-11.48-16.01-1.27-.57-3.16-1.26-4.89-1.34-.1,0-.2,0-.3,0h0Z"/>
  </g>
  <g>
    <path class="cls-3" d="M25.65,82.12c-2.29,0-4.06-.37-5.42-1.13-.98-.55-1.96-1.75-1.8-3.09.15-1.28.9-3.42,4.31-3.42,3.04,0,6.88,1.71,8.39,2.45.52.25,1.23.6,1.74,1.24.64.8.83,2.08.05,2.85-.46.45-1.07.53-1.39.57l-.65.08c-1.5.2-3.36.45-5.23.45h0Z"/>
    <path d="M22.74,75.47c2.72,0,6.36,1.57,7.95,2.35.51.25,1.04.51,1.4.97.36.45.49,1.16.13,1.52-.21.2-.52.25-.82.29-1.56.2-3.67.52-5.75.52-1.8,0-3.57-.24-4.94-1.01-.75-.42-1.39-1.28-1.3-2.1.22-1.9,1.58-2.54,3.32-2.54M22.74,73.47c-3.01,0-4.99,1.61-5.31,4.31-.21,1.8,1.01,3.35,2.31,4.08,1.52.85,3.45,1.26,5.91,1.26,1.94,0,3.84-.25,5.36-.45l.64-.08c.41-.05,1.27-.16,1.97-.85,1.08-1.06,1.09-2.86.02-4.19-.65-.82-1.51-1.24-2.08-1.51-1.57-.77-5.58-2.55-8.83-2.55h0Z"/>
  </g>
  <g>
    <path class="cls-3" d="M405.59,44.9c-2.15,0-3.46-2.64-3.93-3.77-.06-.14-5.8-14.46-2.86-19.4.87-1.46,1.9-1.77,2.62-1.77,3.73,0,6.93,8.36,7.33,10.51.72,3.92.2,7.71-.34,10.96-.38,2.29-1.32,3.45-2.8,3.46h-.02Z"/>
    <path d="M401.42,20.97c2.73,0,5.9,7.28,6.34,9.69.68,3.69.22,7.22-.34,10.62-.2,1.22-.63,2.62-1.82,2.63h-.01c-1.32,0-2.42-1.71-3.01-3.15-1.77-4.31-5.06-14.91-2.92-18.51.54-.9,1.14-1.28,1.76-1.28M401.42,18.97h0c-.97,0-2.37.39-3.48,2.26-3.24,5.45,2.73,20.14,2.79,20.29,1.15,2.79,2.92,4.39,4.86,4.39,1.17,0,3.18-.58,3.8-4.3.55-3.33,1.08-7.22.34-11.3-.37-2-3.7-11.33-8.31-11.33h0Z"/>
  </g>
  <g>
    <path class="cls-3" d="M394.48,51.55c-.11,0-.22,0-.33-.02-.94-.14-1.69-.81-2.31-1.44-5.27-5.46-7.06-9.46-5.32-11.88.5-.69,1.22-1.06,2.09-1.06,1.67,0,3.59,1.45,4.72,2.7,1.88,2.06,2.97,4.75,3.34,8.23.08.7.11,1.44-.18,2.12-.35.82-1.14,1.36-2.01,1.36Z"/>
    <path d="M388.61,38.15c1.31,0,3,1.29,3.98,2.37,2.06,2.26,2.82,5.11,3.09,7.66.06.57.09,1.15-.11,1.63-.18.42-.58.75-1.09.75-.06,0-.12,0-.18-.01-.64-.09-1.24-.63-1.73-1.15-2.37-2.45-7.2-7.86-5.23-10.6.33-.46.78-.65,1.28-.65M388.61,36.15h0c-1.18,0-2.21.52-2.9,1.48-2.1,2.91-.33,7.21,5.41,13.16.73.76,1.65,1.56,2.88,1.74.16.02.32.03.47.03,1.28,0,2.43-.77,2.93-1.97.38-.89.34-1.82.26-2.62-.4-3.7-1.57-6.57-3.6-8.8-.46-.5-2.88-3.02-5.46-3.02h0Z"/>
  </g>
  <g>
    <path class="cls-3" d="M447.93,67.46c-.6,0-1.1-.17-1.46-.5-.62-.56-.57-1.33-.55-1.61.33-5.34,6.34-11.09,13.39-12.8,1.34-.33,2.55-.49,3.61-.49.38,0,.75.02,1.08.07,1.18.16,2.19.67,2.75,1.41.39.51.55,1.09.47,1.69-.17,1.22-1.27,2.16-2.08,2.84-4.12,3.49-9.31,6.56-15.01,8.88-.57.23-1.41.51-2.18.51Z"/>
    <path d="M462.91,53.05c.33,0,.65.02.95.06,1.36.18,2.5.97,2.36,1.98-.11.8-.95,1.54-1.74,2.22-4.12,3.49-9.21,6.47-14.74,8.72-.56.23-1.24.44-1.81.44-.32,0-.6-.07-.79-.24-.23-.21-.24-.52-.22-.81.29-4.66,5.82-10.24,12.62-11.89,1.18-.29,2.35-.46,3.37-.46M462.91,51.05h0c-1.14,0-2.43.17-3.84.52-7.44,1.81-13.79,7.96-14.15,13.71-.06,1.02.23,1.84.88,2.42.38.35,1.06.76,2.13.76.75,0,1.61-.2,2.56-.58,5.79-2.36,11.07-5.49,15.28-9.05.88-.75,2.21-1.87,2.43-3.47.12-.86-.12-1.72-.66-2.44-.72-.95-1.97-1.6-3.41-1.8-.38-.05-.78-.08-1.21-.08h0Z"/>
  </g>
  <g>
    <path class="cls-3" d="M456.86,79.74c-1.87,0-3.74-.25-5.24-.45l-.64-.08c-.33-.04-.93-.12-1.39-.57-.78-.77-.59-2.05.05-2.85.51-.64,1.22-.99,1.74-1.24,1.18-.57,5.26-2.45,8.39-2.45,3.41,0,4.16,2.14,4.31,3.42.16,1.34-.82,2.54-1.8,3.09-1.36.76-3.14,1.13-5.43,1.13Z"/>
    <path d="M459.78,73.1c1.74,0,3.1.64,3.32,2.54.1.82-.54,1.68-1.3,2.1-1.37.77-3.14,1.01-4.94,1.01-2.08,0-4.19-.32-5.75-.52-.3-.04-.61-.09-.82-.29-.36-.36-.23-1.06.13-1.52.36-.45.89-.72,1.4-.97,1.59-.78,5.23-2.35,7.95-2.35M459.78,71.1h0c-3.25,0-7.25,1.78-8.83,2.55-.57.28-1.43.7-2.08,1.51-1.06,1.33-1.05,3.13.02,4.19.7.69,1.55.8,1.97.85l.64.08c1.53.2,3.43.45,5.37.45,2.46,0,4.4-.41,5.91-1.26,1.3-.73,2.52-2.27,2.31-4.08-.31-2.69-2.3-4.3-5.31-4.3h0Z"/>
  </g>
</svg>